%TF.GenerationSoftware,KiCad,Pcbnew,9.0.7*%
%TF.CreationDate,2026-03-03T22:21:50+08:00*%
%TF.ProjectId,stc89pcb,73746338-3970-4636-922e-6b696361645f,rev?*%
%TF.SameCoordinates,Original*%
%TF.FileFunction,Legend,Bot*%
%TF.FilePolarity,Positive*%
%FSLAX46Y46*%
G04 Gerber Fmt 4.6, Leading zero omitted, Abs format (unit mm)*
G04 Created by KiCad (PCBNEW 9.0.7) date 2026-03-03 22:21:50*
%MOMM*%
%LPD*%
G01*
G04 APERTURE LIST*
%ADD10C,0.150000*%
%ADD11C,0.650000*%
%ADD12O,2.100000X1.000000*%
%ADD13O,1.800000X1.000000*%
%ADD14R,1.700000X1.700000*%
%ADD15C,1.700000*%
%ADD16R,1.410000X1.350000*%
%ADD17R,1.350000X1.410000*%
G04 APERTURE END LIST*
D10*
X186006666Y-69759580D02*
X186054285Y-69807200D01*
X186054285Y-69807200D02*
X186197142Y-69854819D01*
X186197142Y-69854819D02*
X186292380Y-69854819D01*
X186292380Y-69854819D02*
X186435237Y-69807200D01*
X186435237Y-69807200D02*
X186530475Y-69711961D01*
X186530475Y-69711961D02*
X186578094Y-69616723D01*
X186578094Y-69616723D02*
X186625713Y-69426247D01*
X186625713Y-69426247D02*
X186625713Y-69283390D01*
X186625713Y-69283390D02*
X186578094Y-69092914D01*
X186578094Y-69092914D02*
X186530475Y-68997676D01*
X186530475Y-68997676D02*
X186435237Y-68902438D01*
X186435237Y-68902438D02*
X186292380Y-68854819D01*
X186292380Y-68854819D02*
X186197142Y-68854819D01*
X186197142Y-68854819D02*
X186054285Y-68902438D01*
X186054285Y-68902438D02*
X186006666Y-68950057D01*
X185625713Y-68950057D02*
X185578094Y-68902438D01*
X185578094Y-68902438D02*
X185482856Y-68854819D01*
X185482856Y-68854819D02*
X185244761Y-68854819D01*
X185244761Y-68854819D02*
X185149523Y-68902438D01*
X185149523Y-68902438D02*
X185101904Y-68950057D01*
X185101904Y-68950057D02*
X185054285Y-69045295D01*
X185054285Y-69045295D02*
X185054285Y-69140533D01*
X185054285Y-69140533D02*
X185101904Y-69283390D01*
X185101904Y-69283390D02*
X185673332Y-69854819D01*
X185673332Y-69854819D02*
X185054285Y-69854819D01*
X186106666Y-64299580D02*
X186154285Y-64347200D01*
X186154285Y-64347200D02*
X186297142Y-64394819D01*
X186297142Y-64394819D02*
X186392380Y-64394819D01*
X186392380Y-64394819D02*
X186535237Y-64347200D01*
X186535237Y-64347200D02*
X186630475Y-64251961D01*
X186630475Y-64251961D02*
X186678094Y-64156723D01*
X186678094Y-64156723D02*
X186725713Y-63966247D01*
X186725713Y-63966247D02*
X186725713Y-63823390D01*
X186725713Y-63823390D02*
X186678094Y-63632914D01*
X186678094Y-63632914D02*
X186630475Y-63537676D01*
X186630475Y-63537676D02*
X186535237Y-63442438D01*
X186535237Y-63442438D02*
X186392380Y-63394819D01*
X186392380Y-63394819D02*
X186297142Y-63394819D01*
X186297142Y-63394819D02*
X186154285Y-63442438D01*
X186154285Y-63442438D02*
X186106666Y-63490057D01*
X185154285Y-64394819D02*
X185725713Y-64394819D01*
X185439999Y-64394819D02*
X185439999Y-63394819D01*
X185439999Y-63394819D02*
X185535237Y-63537676D01*
X185535237Y-63537676D02*
X185630475Y-63632914D01*
X185630475Y-63632914D02*
X185725713Y-63680533D01*
X173729580Y-68803333D02*
X173777200Y-68755714D01*
X173777200Y-68755714D02*
X173824819Y-68612857D01*
X173824819Y-68612857D02*
X173824819Y-68517619D01*
X173824819Y-68517619D02*
X173777200Y-68374762D01*
X173777200Y-68374762D02*
X173681961Y-68279524D01*
X173681961Y-68279524D02*
X173586723Y-68231905D01*
X173586723Y-68231905D02*
X173396247Y-68184286D01*
X173396247Y-68184286D02*
X173253390Y-68184286D01*
X173253390Y-68184286D02*
X173062914Y-68231905D01*
X173062914Y-68231905D02*
X172967676Y-68279524D01*
X172967676Y-68279524D02*
X172872438Y-68374762D01*
X172872438Y-68374762D02*
X172824819Y-68517619D01*
X172824819Y-68517619D02*
X172824819Y-68612857D01*
X172824819Y-68612857D02*
X172872438Y-68755714D01*
X172872438Y-68755714D02*
X172920057Y-68803333D01*
X172824819Y-69660476D02*
X172824819Y-69470000D01*
X172824819Y-69470000D02*
X172872438Y-69374762D01*
X172872438Y-69374762D02*
X172920057Y-69327143D01*
X172920057Y-69327143D02*
X173062914Y-69231905D01*
X173062914Y-69231905D02*
X173253390Y-69184286D01*
X173253390Y-69184286D02*
X173634342Y-69184286D01*
X173634342Y-69184286D02*
X173729580Y-69231905D01*
X173729580Y-69231905D02*
X173777200Y-69279524D01*
X173777200Y-69279524D02*
X173824819Y-69374762D01*
X173824819Y-69374762D02*
X173824819Y-69565238D01*
X173824819Y-69565238D02*
X173777200Y-69660476D01*
X173777200Y-69660476D02*
X173729580Y-69708095D01*
X173729580Y-69708095D02*
X173634342Y-69755714D01*
X173634342Y-69755714D02*
X173396247Y-69755714D01*
X173396247Y-69755714D02*
X173301009Y-69708095D01*
X173301009Y-69708095D02*
X173253390Y-69660476D01*
X173253390Y-69660476D02*
X173205771Y-69565238D01*
X173205771Y-69565238D02*
X173205771Y-69374762D01*
X173205771Y-69374762D02*
X173253390Y-69279524D01*
X173253390Y-69279524D02*
X173301009Y-69231905D01*
X173301009Y-69231905D02*
X173396247Y-69184286D01*
X171426666Y-70309580D02*
X171474285Y-70357200D01*
X171474285Y-70357200D02*
X171617142Y-70404819D01*
X171617142Y-70404819D02*
X171712380Y-70404819D01*
X171712380Y-70404819D02*
X171855237Y-70357200D01*
X171855237Y-70357200D02*
X171950475Y-70261961D01*
X171950475Y-70261961D02*
X171998094Y-70166723D01*
X171998094Y-70166723D02*
X172045713Y-69976247D01*
X172045713Y-69976247D02*
X172045713Y-69833390D01*
X172045713Y-69833390D02*
X171998094Y-69642914D01*
X171998094Y-69642914D02*
X171950475Y-69547676D01*
X171950475Y-69547676D02*
X171855237Y-69452438D01*
X171855237Y-69452438D02*
X171712380Y-69404819D01*
X171712380Y-69404819D02*
X171617142Y-69404819D01*
X171617142Y-69404819D02*
X171474285Y-69452438D01*
X171474285Y-69452438D02*
X171426666Y-69500057D01*
X171093332Y-69404819D02*
X170426666Y-69404819D01*
X170426666Y-69404819D02*
X170855237Y-70404819D01*
%TO.C,C2*%
X183910000Y-66960000D02*
X183910000Y-68460000D01*
X184060000Y-68610000D02*
X185470000Y-68610000D01*
X185470000Y-66810000D02*
X184060000Y-66810000D01*
X186270000Y-66810000D02*
X187680000Y-66810000D01*
X187680000Y-68610000D02*
X186270000Y-68610000D01*
X187830000Y-66960000D02*
X187830000Y-68460000D01*
X183910000Y-66960000D02*
G75*
G02*
X184060000Y-66810000I150000J0D01*
G01*
X184060000Y-68610000D02*
G75*
G02*
X183910000Y-68460000I0J150000D01*
G01*
X187680000Y-66810000D02*
G75*
G02*
X187830000Y-66960000I0J-150000D01*
G01*
X187830000Y-68460000D02*
G75*
G02*
X187680000Y-68610000I-150000J0D01*
G01*
%TO.C,C1*%
X183930000Y-64770000D02*
X183930000Y-66270000D01*
X184080000Y-66420000D02*
X185490000Y-66420000D01*
X185490000Y-64620000D02*
X184080000Y-64620000D01*
X186290000Y-64620000D02*
X187700000Y-64620000D01*
X187700000Y-66420000D02*
X186290000Y-66420000D01*
X187850000Y-64770000D02*
X187850000Y-66270000D01*
X183930000Y-64770000D02*
G75*
G02*
X184080000Y-64620000I150000J0D01*
G01*
X184080000Y-66420000D02*
G75*
G02*
X183930000Y-66270000I0J150000D01*
G01*
X187700000Y-64620000D02*
G75*
G02*
X187850000Y-64770000I0J-150000D01*
G01*
X187850000Y-66270000D02*
G75*
G02*
X187700000Y-66420000I-150000J0D01*
G01*
%TO.C,C6*%
X174120000Y-67260000D02*
X174120000Y-68670000D01*
X174120000Y-70880000D02*
X174120000Y-69470000D01*
X175770000Y-67110000D02*
X174270000Y-67110000D01*
X175770000Y-71030000D02*
X174270000Y-71030000D01*
X175920000Y-68670000D02*
X175920000Y-67260000D01*
X175920000Y-69470000D02*
X175920000Y-70880000D01*
X174120000Y-67260000D02*
G75*
G02*
X174270000Y-67110000I150000J0D01*
G01*
X174270000Y-71030000D02*
G75*
G02*
X174120000Y-70880000I0J150000D01*
G01*
X175770000Y-67110000D02*
G75*
G02*
X175920000Y-67260000I0J-150000D01*
G01*
X175920000Y-70880000D02*
G75*
G02*
X175770000Y-71030000I-150000J0D01*
G01*
%TO.C,C7*%
X169430000Y-70770000D02*
X169430000Y-72270000D01*
X169580000Y-72420000D02*
X170990000Y-72420000D01*
X170990000Y-70620000D02*
X169580000Y-70620000D01*
X171790000Y-70620000D02*
X173200000Y-70620000D01*
X173200000Y-72420000D02*
X171790000Y-72420000D01*
X173350000Y-70770000D02*
X173350000Y-72270000D01*
X169430000Y-70770000D02*
G75*
G02*
X169580000Y-70620000I150000J0D01*
G01*
X169580000Y-72420000D02*
G75*
G02*
X169430000Y-72270000I0J150000D01*
G01*
X173200000Y-70620000D02*
G75*
G02*
X173350000Y-70770000I0J-150000D01*
G01*
X173350000Y-72270000D02*
G75*
G02*
X173200000Y-72420000I-150000J0D01*
G01*
%TD*%
%LPC*%
D11*
%TO.C,J1*%
X158330000Y-62810000D03*
X158330000Y-68590000D03*
D12*
X158830000Y-61380000D03*
D13*
X154650000Y-61380000D03*
D12*
X158830000Y-70020000D03*
D13*
X154650000Y-70020000D03*
%TD*%
D14*
%TO.C,J3*%
X206770000Y-54920000D03*
D15*
X204230000Y-54920000D03*
X201690000Y-54920000D03*
X199150000Y-54920000D03*
X196610000Y-54920000D03*
X194070000Y-54920000D03*
X191530000Y-54920000D03*
X188990000Y-54920000D03*
X186450000Y-54920000D03*
X183910000Y-54920000D03*
X181370000Y-54920000D03*
X178830000Y-54920000D03*
X176290000Y-54920000D03*
X173750000Y-54920000D03*
X171210000Y-54920000D03*
X168670000Y-54920000D03*
X166130000Y-54920000D03*
X163590000Y-54920000D03*
X161050000Y-54920000D03*
X158510000Y-54920000D03*
X155970000Y-54920000D03*
X153430000Y-54920000D03*
%TD*%
D14*
%TO.C,J2*%
X154060000Y-77740000D03*
D15*
X156600000Y-77740000D03*
X159140000Y-77740000D03*
X161680000Y-77740000D03*
X164220000Y-77740000D03*
X166760000Y-77740000D03*
X169300000Y-77740000D03*
X171840000Y-77740000D03*
X174380000Y-77740000D03*
X176920000Y-77740000D03*
X179460000Y-77740000D03*
X182000000Y-77740000D03*
X184540000Y-77740000D03*
X187080000Y-77740000D03*
X189620000Y-77740000D03*
X192160000Y-77740000D03*
X194700000Y-77740000D03*
X197240000Y-77740000D03*
X199780000Y-77740000D03*
X202320000Y-77740000D03*
X204860000Y-77740000D03*
X207400000Y-77740000D03*
%TD*%
D16*
%TO.C,C2*%
X184870000Y-67710000D03*
X186870000Y-67710000D03*
%TD*%
%TO.C,C1*%
X184890000Y-65520000D03*
X186890000Y-65520000D03*
%TD*%
D17*
%TO.C,C6*%
X175020000Y-68070000D03*
X175020000Y-70070000D03*
%TD*%
D16*
%TO.C,C7*%
X170390000Y-71520000D03*
X172390000Y-71520000D03*
%TD*%
%LPD*%
M02*
