%TF.GenerationSoftware,KiCad,Pcbnew,9.0.7*%
%TF.CreationDate,2026-03-03T22:21:50+08:00*%
%TF.ProjectId,stc89pcb,73746338-3970-4636-922e-6b696361645f,rev?*%
%TF.SameCoordinates,Original*%
%TF.FileFunction,Legend,Top*%
%TF.FilePolarity,Positive*%
%FSLAX46Y46*%
G04 Gerber Fmt 4.6, Leading zero omitted, Abs format (unit mm)*
G04 Created by KiCad (PCBNEW 9.0.7) date 2026-03-03 22:21:50*
%MOMM*%
%LPD*%
G01*
G04 APERTURE LIST*
G04 Aperture macros list*
%AMRoundRect*
0 Rectangle with rounded corners*
0 $1 Rounding radius*
0 $2 $3 $4 $5 $6 $7 $8 $9 X,Y pos of 4 corners*
0 Add a 4 corners polygon primitive as box body*
4,1,4,$2,$3,$4,$5,$6,$7,$8,$9,$2,$3,0*
0 Add four circle primitives for the rounded corners*
1,1,$1+$1,$2,$3*
1,1,$1+$1,$4,$5*
1,1,$1+$1,$6,$7*
1,1,$1+$1,$8,$9*
0 Add four rect primitives between the rounded corners*
20,1,$1+$1,$2,$3,$4,$5,0*
20,1,$1+$1,$4,$5,$6,$7,0*
20,1,$1+$1,$6,$7,$8,$9,0*
20,1,$1+$1,$8,$9,$2,$3,0*%
%AMRotRect*
0 Rectangle, with rotation*
0 The origin of the aperture is its center*
0 $1 length*
0 $2 width*
0 $3 Rotation angle, in degrees counterclockwise*
0 Add horizontal line*
21,1,$1,$2,0,0,$3*%
G04 Aperture macros list end*
%ADD10C,0.100000*%
%ADD11C,0.150000*%
%ADD12C,0.250000*%
%ADD13C,0.120000*%
%ADD14C,0.300000*%
%ADD15R,1.210000X1.700000*%
%ADD16R,1.000000X1.400000*%
%ADD17R,1.230000X1.860000*%
%ADD18C,0.650000*%
%ADD19RoundRect,0.150000X-0.425000X0.150000X-0.425000X-0.150000X0.425000X-0.150000X0.425000X0.150000X0*%
%ADD20RoundRect,0.075000X-0.500000X0.075000X-0.500000X-0.075000X0.500000X-0.075000X0.500000X0.075000X0*%
%ADD21O,2.100000X1.000000*%
%ADD22O,1.800000X1.000000*%
%ADD23R,1.410000X1.350000*%
%ADD24RotRect,1.410000X1.350000X135.000000*%
%ADD25RotRect,1.410000X1.350000X45.000000*%
%ADD26O,0.420000X1.670000*%
%ADD27O,1.670000X0.420000*%
%ADD28O,1.750000X0.560000*%
%ADD29R,1.700000X1.700000*%
%ADD30C,1.700000*%
%ADD31R,1.200000X2.000000*%
%ADD32RotRect,1.400000X1.200000X45.000000*%
G04 APERTURE END LIST*
D10*
X205043734Y-57432342D02*
X204996115Y-57479961D01*
X204996115Y-57479961D02*
X204900877Y-57527580D01*
X204900877Y-57527580D02*
X204662782Y-57527580D01*
X204662782Y-57527580D02*
X204567544Y-57479961D01*
X204567544Y-57479961D02*
X204519925Y-57432342D01*
X204519925Y-57432342D02*
X204472306Y-57337104D01*
X204472306Y-57337104D02*
X204472306Y-57241866D01*
X204472306Y-57241866D02*
X204519925Y-57099009D01*
X204519925Y-57099009D02*
X205091353Y-56527580D01*
X205091353Y-56527580D02*
X204472306Y-56527580D01*
X203615163Y-57194247D02*
X203615163Y-56527580D01*
X203853258Y-57575200D02*
X204091353Y-56860914D01*
X204091353Y-56860914D02*
X203472306Y-56860914D01*
X198530585Y-75997419D02*
X197959157Y-75997419D01*
X198244871Y-75997419D02*
X198244871Y-74997419D01*
X198244871Y-74997419D02*
X198149633Y-75140276D01*
X198149633Y-75140276D02*
X198054395Y-75235514D01*
X198054395Y-75235514D02*
X197959157Y-75283133D01*
X199006776Y-75997419D02*
X199197252Y-75997419D01*
X199197252Y-75997419D02*
X199292490Y-75949800D01*
X199292490Y-75949800D02*
X199340109Y-75902180D01*
X199340109Y-75902180D02*
X199435347Y-75759323D01*
X199435347Y-75759323D02*
X199482966Y-75568847D01*
X199482966Y-75568847D02*
X199482966Y-75187895D01*
X199482966Y-75187895D02*
X199435347Y-75092657D01*
X199435347Y-75092657D02*
X199387728Y-75045038D01*
X199387728Y-75045038D02*
X199292490Y-74997419D01*
X199292490Y-74997419D02*
X199102014Y-74997419D01*
X199102014Y-74997419D02*
X199006776Y-75045038D01*
X199006776Y-75045038D02*
X198959157Y-75092657D01*
X198959157Y-75092657D02*
X198911538Y-75187895D01*
X198911538Y-75187895D02*
X198911538Y-75425990D01*
X198911538Y-75425990D02*
X198959157Y-75521228D01*
X198959157Y-75521228D02*
X199006776Y-75568847D01*
X199006776Y-75568847D02*
X199102014Y-75616466D01*
X199102014Y-75616466D02*
X199292490Y-75616466D01*
X199292490Y-75616466D02*
X199387728Y-75568847D01*
X199387728Y-75568847D02*
X199435347Y-75521228D01*
X199435347Y-75521228D02*
X199482966Y-75425990D01*
X154326503Y-75997419D02*
X153755075Y-75997419D01*
X154040789Y-75997419D02*
X154040789Y-74997419D01*
X154040789Y-74997419D02*
X153945551Y-75140276D01*
X153945551Y-75140276D02*
X153850313Y-75235514D01*
X153850313Y-75235514D02*
X153755075Y-75283133D01*
X157666640Y-74997419D02*
X158285687Y-74997419D01*
X158285687Y-74997419D02*
X157952354Y-75378371D01*
X157952354Y-75378371D02*
X158095211Y-75378371D01*
X158095211Y-75378371D02*
X158190449Y-75425990D01*
X158190449Y-75425990D02*
X158238068Y-75473609D01*
X158238068Y-75473609D02*
X158285687Y-75568847D01*
X158285687Y-75568847D02*
X158285687Y-75806942D01*
X158285687Y-75806942D02*
X158238068Y-75902180D01*
X158238068Y-75902180D02*
X158190449Y-75949800D01*
X158190449Y-75949800D02*
X158095211Y-75997419D01*
X158095211Y-75997419D02*
X157809497Y-75997419D01*
X157809497Y-75997419D02*
X157714259Y-75949800D01*
X157714259Y-75949800D02*
X157666640Y-75902180D01*
X206755075Y-75092657D02*
X206802694Y-75045038D01*
X206802694Y-75045038D02*
X206897932Y-74997419D01*
X206897932Y-74997419D02*
X207136027Y-74997419D01*
X207136027Y-74997419D02*
X207231265Y-75045038D01*
X207231265Y-75045038D02*
X207278884Y-75092657D01*
X207278884Y-75092657D02*
X207326503Y-75187895D01*
X207326503Y-75187895D02*
X207326503Y-75283133D01*
X207326503Y-75283133D02*
X207278884Y-75425990D01*
X207278884Y-75425990D02*
X206707456Y-75997419D01*
X206707456Y-75997419D02*
X207326503Y-75997419D01*
X207707456Y-75092657D02*
X207755075Y-75045038D01*
X207755075Y-75045038D02*
X207850313Y-74997419D01*
X207850313Y-74997419D02*
X208088408Y-74997419D01*
X208088408Y-74997419D02*
X208183646Y-75045038D01*
X208183646Y-75045038D02*
X208231265Y-75092657D01*
X208231265Y-75092657D02*
X208278884Y-75187895D01*
X208278884Y-75187895D02*
X208278884Y-75283133D01*
X208278884Y-75283133D02*
X208231265Y-75425990D01*
X208231265Y-75425990D02*
X207659837Y-75997419D01*
X207659837Y-75997419D02*
X208278884Y-75997419D01*
X207583734Y-57432342D02*
X207536115Y-57479961D01*
X207536115Y-57479961D02*
X207440877Y-57527580D01*
X207440877Y-57527580D02*
X207202782Y-57527580D01*
X207202782Y-57527580D02*
X207107544Y-57479961D01*
X207107544Y-57479961D02*
X207059925Y-57432342D01*
X207059925Y-57432342D02*
X207012306Y-57337104D01*
X207012306Y-57337104D02*
X207012306Y-57241866D01*
X207012306Y-57241866D02*
X207059925Y-57099009D01*
X207059925Y-57099009D02*
X207631353Y-56527580D01*
X207631353Y-56527580D02*
X207012306Y-56527580D01*
X206678972Y-57527580D02*
X206059925Y-57527580D01*
X206059925Y-57527580D02*
X206393258Y-57146628D01*
X206393258Y-57146628D02*
X206250401Y-57146628D01*
X206250401Y-57146628D02*
X206155163Y-57099009D01*
X206155163Y-57099009D02*
X206107544Y-57051390D01*
X206107544Y-57051390D02*
X206059925Y-56956152D01*
X206059925Y-56956152D02*
X206059925Y-56718057D01*
X206059925Y-56718057D02*
X206107544Y-56622819D01*
X206107544Y-56622819D02*
X206155163Y-56575200D01*
X206155163Y-56575200D02*
X206250401Y-56527580D01*
X206250401Y-56527580D02*
X206536115Y-56527580D01*
X206536115Y-56527580D02*
X206631353Y-56575200D01*
X206631353Y-56575200D02*
X206678972Y-56622819D01*
X172071353Y-57527580D02*
X171452306Y-57527580D01*
X171452306Y-57527580D02*
X171785639Y-57146628D01*
X171785639Y-57146628D02*
X171642782Y-57146628D01*
X171642782Y-57146628D02*
X171547544Y-57099009D01*
X171547544Y-57099009D02*
X171499925Y-57051390D01*
X171499925Y-57051390D02*
X171452306Y-56956152D01*
X171452306Y-56956152D02*
X171452306Y-56718057D01*
X171452306Y-56718057D02*
X171499925Y-56622819D01*
X171499925Y-56622819D02*
X171547544Y-56575200D01*
X171547544Y-56575200D02*
X171642782Y-56527580D01*
X171642782Y-56527580D02*
X171928496Y-56527580D01*
X171928496Y-56527580D02*
X172023734Y-56575200D01*
X172023734Y-56575200D02*
X172071353Y-56622819D01*
X171118972Y-57527580D02*
X170452306Y-57527580D01*
X170452306Y-57527580D02*
X170880877Y-56527580D01*
X202503734Y-57432342D02*
X202456115Y-57479961D01*
X202456115Y-57479961D02*
X202360877Y-57527580D01*
X202360877Y-57527580D02*
X202122782Y-57527580D01*
X202122782Y-57527580D02*
X202027544Y-57479961D01*
X202027544Y-57479961D02*
X201979925Y-57432342D01*
X201979925Y-57432342D02*
X201932306Y-57337104D01*
X201932306Y-57337104D02*
X201932306Y-57241866D01*
X201932306Y-57241866D02*
X201979925Y-57099009D01*
X201979925Y-57099009D02*
X202551353Y-56527580D01*
X202551353Y-56527580D02*
X201932306Y-56527580D01*
X201027544Y-57527580D02*
X201503734Y-57527580D01*
X201503734Y-57527580D02*
X201551353Y-57051390D01*
X201551353Y-57051390D02*
X201503734Y-57099009D01*
X201503734Y-57099009D02*
X201408496Y-57146628D01*
X201408496Y-57146628D02*
X201170401Y-57146628D01*
X201170401Y-57146628D02*
X201075163Y-57099009D01*
X201075163Y-57099009D02*
X201027544Y-57051390D01*
X201027544Y-57051390D02*
X200979925Y-56956152D01*
X200979925Y-56956152D02*
X200979925Y-56718057D01*
X200979925Y-56718057D02*
X201027544Y-56622819D01*
X201027544Y-56622819D02*
X201075163Y-56575200D01*
X201075163Y-56575200D02*
X201170401Y-56527580D01*
X201170401Y-56527580D02*
X201408496Y-56527580D01*
X201408496Y-56527580D02*
X201503734Y-56575200D01*
X201503734Y-56575200D02*
X201551353Y-56622819D01*
X194883734Y-57432342D02*
X194836115Y-57479961D01*
X194836115Y-57479961D02*
X194740877Y-57527580D01*
X194740877Y-57527580D02*
X194502782Y-57527580D01*
X194502782Y-57527580D02*
X194407544Y-57479961D01*
X194407544Y-57479961D02*
X194359925Y-57432342D01*
X194359925Y-57432342D02*
X194312306Y-57337104D01*
X194312306Y-57337104D02*
X194312306Y-57241866D01*
X194312306Y-57241866D02*
X194359925Y-57099009D01*
X194359925Y-57099009D02*
X194931353Y-56527580D01*
X194931353Y-56527580D02*
X194312306Y-56527580D01*
X193740877Y-57099009D02*
X193836115Y-57146628D01*
X193836115Y-57146628D02*
X193883734Y-57194247D01*
X193883734Y-57194247D02*
X193931353Y-57289485D01*
X193931353Y-57289485D02*
X193931353Y-57337104D01*
X193931353Y-57337104D02*
X193883734Y-57432342D01*
X193883734Y-57432342D02*
X193836115Y-57479961D01*
X193836115Y-57479961D02*
X193740877Y-57527580D01*
X193740877Y-57527580D02*
X193550401Y-57527580D01*
X193550401Y-57527580D02*
X193455163Y-57479961D01*
X193455163Y-57479961D02*
X193407544Y-57432342D01*
X193407544Y-57432342D02*
X193359925Y-57337104D01*
X193359925Y-57337104D02*
X193359925Y-57289485D01*
X193359925Y-57289485D02*
X193407544Y-57194247D01*
X193407544Y-57194247D02*
X193455163Y-57146628D01*
X193455163Y-57146628D02*
X193550401Y-57099009D01*
X193550401Y-57099009D02*
X193740877Y-57099009D01*
X193740877Y-57099009D02*
X193836115Y-57051390D01*
X193836115Y-57051390D02*
X193883734Y-57003771D01*
X193883734Y-57003771D02*
X193931353Y-56908533D01*
X193931353Y-56908533D02*
X193931353Y-56718057D01*
X193931353Y-56718057D02*
X193883734Y-56622819D01*
X193883734Y-56622819D02*
X193836115Y-56575200D01*
X193836115Y-56575200D02*
X193740877Y-56527580D01*
X193740877Y-56527580D02*
X193550401Y-56527580D01*
X193550401Y-56527580D02*
X193455163Y-56575200D01*
X193455163Y-56575200D02*
X193407544Y-56622819D01*
X193407544Y-56622819D02*
X193359925Y-56718057D01*
X193359925Y-56718057D02*
X193359925Y-56908533D01*
X193359925Y-56908533D02*
X193407544Y-57003771D01*
X193407544Y-57003771D02*
X193455163Y-57051390D01*
X193455163Y-57051390D02*
X193550401Y-57099009D01*
X200891129Y-75092657D02*
X200938748Y-75045038D01*
X200938748Y-75045038D02*
X201033986Y-74997419D01*
X201033986Y-74997419D02*
X201272081Y-74997419D01*
X201272081Y-74997419D02*
X201367319Y-75045038D01*
X201367319Y-75045038D02*
X201414938Y-75092657D01*
X201414938Y-75092657D02*
X201462557Y-75187895D01*
X201462557Y-75187895D02*
X201462557Y-75283133D01*
X201462557Y-75283133D02*
X201414938Y-75425990D01*
X201414938Y-75425990D02*
X200843510Y-75997419D01*
X200843510Y-75997419D02*
X201462557Y-75997419D01*
X202081605Y-74997419D02*
X202176843Y-74997419D01*
X202176843Y-74997419D02*
X202272081Y-75045038D01*
X202272081Y-75045038D02*
X202319700Y-75092657D01*
X202319700Y-75092657D02*
X202367319Y-75187895D01*
X202367319Y-75187895D02*
X202414938Y-75378371D01*
X202414938Y-75378371D02*
X202414938Y-75616466D01*
X202414938Y-75616466D02*
X202367319Y-75806942D01*
X202367319Y-75806942D02*
X202319700Y-75902180D01*
X202319700Y-75902180D02*
X202272081Y-75949800D01*
X202272081Y-75949800D02*
X202176843Y-75997419D01*
X202176843Y-75997419D02*
X202081605Y-75997419D01*
X202081605Y-75997419D02*
X201986367Y-75949800D01*
X201986367Y-75949800D02*
X201938748Y-75902180D01*
X201938748Y-75902180D02*
X201891129Y-75806942D01*
X201891129Y-75806942D02*
X201843510Y-75616466D01*
X201843510Y-75616466D02*
X201843510Y-75378371D01*
X201843510Y-75378371D02*
X201891129Y-75187895D01*
X201891129Y-75187895D02*
X201938748Y-75092657D01*
X201938748Y-75092657D02*
X201986367Y-75045038D01*
X201986367Y-75045038D02*
X202081605Y-74997419D01*
X192666639Y-75997419D02*
X192095211Y-75997419D01*
X192380925Y-75997419D02*
X192380925Y-74997419D01*
X192380925Y-74997419D02*
X192285687Y-75140276D01*
X192285687Y-75140276D02*
X192190449Y-75235514D01*
X192190449Y-75235514D02*
X192095211Y-75283133D01*
X192999973Y-74997419D02*
X193666639Y-74997419D01*
X193666639Y-74997419D02*
X193238068Y-75997419D01*
X158847544Y-57194247D02*
X158847544Y-56527580D01*
X159085639Y-57575200D02*
X159323734Y-56860914D01*
X159323734Y-56860914D02*
X158704687Y-56860914D01*
X158371353Y-57432342D02*
X158323734Y-57479961D01*
X158323734Y-57479961D02*
X158228496Y-57527580D01*
X158228496Y-57527580D02*
X157990401Y-57527580D01*
X157990401Y-57527580D02*
X157895163Y-57479961D01*
X157895163Y-57479961D02*
X157847544Y-57432342D01*
X157847544Y-57432342D02*
X157799925Y-57337104D01*
X157799925Y-57337104D02*
X157799925Y-57241866D01*
X157799925Y-57241866D02*
X157847544Y-57099009D01*
X157847544Y-57099009D02*
X158418972Y-56527580D01*
X158418972Y-56527580D02*
X157799925Y-56527580D01*
X175074802Y-75997419D02*
X174503374Y-75997419D01*
X174789088Y-75997419D02*
X174789088Y-74997419D01*
X174789088Y-74997419D02*
X174693850Y-75140276D01*
X174693850Y-75140276D02*
X174598612Y-75235514D01*
X174598612Y-75235514D02*
X174503374Y-75283133D01*
X176027183Y-75997419D02*
X175455755Y-75997419D01*
X175741469Y-75997419D02*
X175741469Y-74997419D01*
X175741469Y-74997419D02*
X175646231Y-75140276D01*
X175646231Y-75140276D02*
X175550993Y-75235514D01*
X175550993Y-75235514D02*
X175455755Y-75283133D01*
X199963734Y-57432342D02*
X199916115Y-57479961D01*
X199916115Y-57479961D02*
X199820877Y-57527580D01*
X199820877Y-57527580D02*
X199582782Y-57527580D01*
X199582782Y-57527580D02*
X199487544Y-57479961D01*
X199487544Y-57479961D02*
X199439925Y-57432342D01*
X199439925Y-57432342D02*
X199392306Y-57337104D01*
X199392306Y-57337104D02*
X199392306Y-57241866D01*
X199392306Y-57241866D02*
X199439925Y-57099009D01*
X199439925Y-57099009D02*
X200011353Y-56527580D01*
X200011353Y-56527580D02*
X199392306Y-56527580D01*
X198535163Y-57527580D02*
X198725639Y-57527580D01*
X198725639Y-57527580D02*
X198820877Y-57479961D01*
X198820877Y-57479961D02*
X198868496Y-57432342D01*
X198868496Y-57432342D02*
X198963734Y-57289485D01*
X198963734Y-57289485D02*
X199011353Y-57099009D01*
X199011353Y-57099009D02*
X199011353Y-56718057D01*
X199011353Y-56718057D02*
X198963734Y-56622819D01*
X198963734Y-56622819D02*
X198916115Y-56575200D01*
X198916115Y-56575200D02*
X198820877Y-56527580D01*
X198820877Y-56527580D02*
X198630401Y-56527580D01*
X198630401Y-56527580D02*
X198535163Y-56575200D01*
X198535163Y-56575200D02*
X198487544Y-56622819D01*
X198487544Y-56622819D02*
X198439925Y-56718057D01*
X198439925Y-56718057D02*
X198439925Y-56956152D01*
X198439925Y-56956152D02*
X198487544Y-57051390D01*
X198487544Y-57051390D02*
X198535163Y-57099009D01*
X198535163Y-57099009D02*
X198630401Y-57146628D01*
X198630401Y-57146628D02*
X198820877Y-57146628D01*
X198820877Y-57146628D02*
X198916115Y-57099009D01*
X198916115Y-57099009D02*
X198963734Y-57051390D01*
X198963734Y-57051390D02*
X199011353Y-56956152D01*
X164129224Y-74997419D02*
X163938748Y-74997419D01*
X163938748Y-74997419D02*
X163843510Y-75045038D01*
X163843510Y-75045038D02*
X163795891Y-75092657D01*
X163795891Y-75092657D02*
X163700653Y-75235514D01*
X163700653Y-75235514D02*
X163653034Y-75425990D01*
X163653034Y-75425990D02*
X163653034Y-75806942D01*
X163653034Y-75806942D02*
X163700653Y-75902180D01*
X163700653Y-75902180D02*
X163748272Y-75949800D01*
X163748272Y-75949800D02*
X163843510Y-75997419D01*
X163843510Y-75997419D02*
X164033986Y-75997419D01*
X164033986Y-75997419D02*
X164129224Y-75949800D01*
X164129224Y-75949800D02*
X164176843Y-75902180D01*
X164176843Y-75902180D02*
X164224462Y-75806942D01*
X164224462Y-75806942D02*
X164224462Y-75568847D01*
X164224462Y-75568847D02*
X164176843Y-75473609D01*
X164176843Y-75473609D02*
X164129224Y-75425990D01*
X164129224Y-75425990D02*
X164033986Y-75378371D01*
X164033986Y-75378371D02*
X163843510Y-75378371D01*
X163843510Y-75378371D02*
X163748272Y-75425990D01*
X163748272Y-75425990D02*
X163700653Y-75473609D01*
X163700653Y-75473609D02*
X163653034Y-75568847D01*
X169531353Y-57527580D02*
X168912306Y-57527580D01*
X168912306Y-57527580D02*
X169245639Y-57146628D01*
X169245639Y-57146628D02*
X169102782Y-57146628D01*
X169102782Y-57146628D02*
X169007544Y-57099009D01*
X169007544Y-57099009D02*
X168959925Y-57051390D01*
X168959925Y-57051390D02*
X168912306Y-56956152D01*
X168912306Y-56956152D02*
X168912306Y-56718057D01*
X168912306Y-56718057D02*
X168959925Y-56622819D01*
X168959925Y-56622819D02*
X169007544Y-56575200D01*
X169007544Y-56575200D02*
X169102782Y-56527580D01*
X169102782Y-56527580D02*
X169388496Y-56527580D01*
X169388496Y-56527580D02*
X169483734Y-56575200D01*
X169483734Y-56575200D02*
X169531353Y-56622819D01*
X168340877Y-57099009D02*
X168436115Y-57146628D01*
X168436115Y-57146628D02*
X168483734Y-57194247D01*
X168483734Y-57194247D02*
X168531353Y-57289485D01*
X168531353Y-57289485D02*
X168531353Y-57337104D01*
X168531353Y-57337104D02*
X168483734Y-57432342D01*
X168483734Y-57432342D02*
X168436115Y-57479961D01*
X168436115Y-57479961D02*
X168340877Y-57527580D01*
X168340877Y-57527580D02*
X168150401Y-57527580D01*
X168150401Y-57527580D02*
X168055163Y-57479961D01*
X168055163Y-57479961D02*
X168007544Y-57432342D01*
X168007544Y-57432342D02*
X167959925Y-57337104D01*
X167959925Y-57337104D02*
X167959925Y-57289485D01*
X167959925Y-57289485D02*
X168007544Y-57194247D01*
X168007544Y-57194247D02*
X168055163Y-57146628D01*
X168055163Y-57146628D02*
X168150401Y-57099009D01*
X168150401Y-57099009D02*
X168340877Y-57099009D01*
X168340877Y-57099009D02*
X168436115Y-57051390D01*
X168436115Y-57051390D02*
X168483734Y-57003771D01*
X168483734Y-57003771D02*
X168531353Y-56908533D01*
X168531353Y-56908533D02*
X168531353Y-56718057D01*
X168531353Y-56718057D02*
X168483734Y-56622819D01*
X168483734Y-56622819D02*
X168436115Y-56575200D01*
X168436115Y-56575200D02*
X168340877Y-56527580D01*
X168340877Y-56527580D02*
X168150401Y-56527580D01*
X168150401Y-56527580D02*
X168055163Y-56575200D01*
X168055163Y-56575200D02*
X168007544Y-56622819D01*
X168007544Y-56622819D02*
X167959925Y-56718057D01*
X167959925Y-56718057D02*
X167959925Y-56908533D01*
X167959925Y-56908533D02*
X168007544Y-57003771D01*
X168007544Y-57003771D02*
X168055163Y-57051390D01*
X168055163Y-57051390D02*
X168150401Y-57099009D01*
X182231353Y-57527580D02*
X181612306Y-57527580D01*
X181612306Y-57527580D02*
X181945639Y-57146628D01*
X181945639Y-57146628D02*
X181802782Y-57146628D01*
X181802782Y-57146628D02*
X181707544Y-57099009D01*
X181707544Y-57099009D02*
X181659925Y-57051390D01*
X181659925Y-57051390D02*
X181612306Y-56956152D01*
X181612306Y-56956152D02*
X181612306Y-56718057D01*
X181612306Y-56718057D02*
X181659925Y-56622819D01*
X181659925Y-56622819D02*
X181707544Y-56575200D01*
X181707544Y-56575200D02*
X181802782Y-56527580D01*
X181802782Y-56527580D02*
X182088496Y-56527580D01*
X182088496Y-56527580D02*
X182183734Y-56575200D01*
X182183734Y-56575200D02*
X182231353Y-56622819D01*
X181278972Y-57527580D02*
X180659925Y-57527580D01*
X180659925Y-57527580D02*
X180993258Y-57146628D01*
X180993258Y-57146628D02*
X180850401Y-57146628D01*
X180850401Y-57146628D02*
X180755163Y-57099009D01*
X180755163Y-57099009D02*
X180707544Y-57051390D01*
X180707544Y-57051390D02*
X180659925Y-56956152D01*
X180659925Y-56956152D02*
X180659925Y-56718057D01*
X180659925Y-56718057D02*
X180707544Y-56622819D01*
X180707544Y-56622819D02*
X180755163Y-56575200D01*
X180755163Y-56575200D02*
X180850401Y-56527580D01*
X180850401Y-56527580D02*
X181136115Y-56527580D01*
X181136115Y-56527580D02*
X181231353Y-56575200D01*
X181231353Y-56575200D02*
X181278972Y-56622819D01*
X203823102Y-75092657D02*
X203870721Y-75045038D01*
X203870721Y-75045038D02*
X203965959Y-74997419D01*
X203965959Y-74997419D02*
X204204054Y-74997419D01*
X204204054Y-74997419D02*
X204299292Y-75045038D01*
X204299292Y-75045038D02*
X204346911Y-75092657D01*
X204346911Y-75092657D02*
X204394530Y-75187895D01*
X204394530Y-75187895D02*
X204394530Y-75283133D01*
X204394530Y-75283133D02*
X204346911Y-75425990D01*
X204346911Y-75425990D02*
X203775483Y-75997419D01*
X203775483Y-75997419D02*
X204394530Y-75997419D01*
X205346911Y-75997419D02*
X204775483Y-75997419D01*
X205061197Y-75997419D02*
X205061197Y-74997419D01*
X205061197Y-74997419D02*
X204965959Y-75140276D01*
X204965959Y-75140276D02*
X204870721Y-75235514D01*
X204870721Y-75235514D02*
X204775483Y-75283133D01*
X165585007Y-74997419D02*
X166251673Y-74997419D01*
X166251673Y-74997419D02*
X165823102Y-75997419D01*
X180938748Y-75997419D02*
X180367320Y-75997419D01*
X180653034Y-75997419D02*
X180653034Y-74997419D01*
X180653034Y-74997419D02*
X180557796Y-75140276D01*
X180557796Y-75140276D02*
X180462558Y-75235514D01*
X180462558Y-75235514D02*
X180367320Y-75283133D01*
X181272082Y-74997419D02*
X181891129Y-74997419D01*
X181891129Y-74997419D02*
X181557796Y-75378371D01*
X181557796Y-75378371D02*
X181700653Y-75378371D01*
X181700653Y-75378371D02*
X181795891Y-75425990D01*
X181795891Y-75425990D02*
X181843510Y-75473609D01*
X181843510Y-75473609D02*
X181891129Y-75568847D01*
X181891129Y-75568847D02*
X181891129Y-75806942D01*
X181891129Y-75806942D02*
X181843510Y-75902180D01*
X181843510Y-75902180D02*
X181795891Y-75949800D01*
X181795891Y-75949800D02*
X181700653Y-75997419D01*
X181700653Y-75997419D02*
X181414939Y-75997419D01*
X181414939Y-75997419D02*
X181319701Y-75949800D01*
X181319701Y-75949800D02*
X181272082Y-75902180D01*
X195598612Y-75997419D02*
X195027184Y-75997419D01*
X195312898Y-75997419D02*
X195312898Y-74997419D01*
X195312898Y-74997419D02*
X195217660Y-75140276D01*
X195217660Y-75140276D02*
X195122422Y-75235514D01*
X195122422Y-75235514D02*
X195027184Y-75283133D01*
X196170041Y-75425990D02*
X196074803Y-75378371D01*
X196074803Y-75378371D02*
X196027184Y-75330752D01*
X196027184Y-75330752D02*
X195979565Y-75235514D01*
X195979565Y-75235514D02*
X195979565Y-75187895D01*
X195979565Y-75187895D02*
X196027184Y-75092657D01*
X196027184Y-75092657D02*
X196074803Y-75045038D01*
X196074803Y-75045038D02*
X196170041Y-74997419D01*
X196170041Y-74997419D02*
X196360517Y-74997419D01*
X196360517Y-74997419D02*
X196455755Y-75045038D01*
X196455755Y-75045038D02*
X196503374Y-75092657D01*
X196503374Y-75092657D02*
X196550993Y-75187895D01*
X196550993Y-75187895D02*
X196550993Y-75235514D01*
X196550993Y-75235514D02*
X196503374Y-75330752D01*
X196503374Y-75330752D02*
X196455755Y-75378371D01*
X196455755Y-75378371D02*
X196360517Y-75425990D01*
X196360517Y-75425990D02*
X196170041Y-75425990D01*
X196170041Y-75425990D02*
X196074803Y-75473609D01*
X196074803Y-75473609D02*
X196027184Y-75521228D01*
X196027184Y-75521228D02*
X195979565Y-75616466D01*
X195979565Y-75616466D02*
X195979565Y-75806942D01*
X195979565Y-75806942D02*
X196027184Y-75902180D01*
X196027184Y-75902180D02*
X196074803Y-75949800D01*
X196074803Y-75949800D02*
X196170041Y-75997419D01*
X196170041Y-75997419D02*
X196360517Y-75997419D01*
X196360517Y-75997419D02*
X196455755Y-75949800D01*
X196455755Y-75949800D02*
X196503374Y-75902180D01*
X196503374Y-75902180D02*
X196550993Y-75806942D01*
X196550993Y-75806942D02*
X196550993Y-75616466D01*
X196550993Y-75616466D02*
X196503374Y-75521228D01*
X196503374Y-75521228D02*
X196455755Y-75473609D01*
X196455755Y-75473609D02*
X196360517Y-75425990D01*
X172142829Y-75997419D02*
X171571401Y-75997419D01*
X171857115Y-75997419D02*
X171857115Y-74997419D01*
X171857115Y-74997419D02*
X171761877Y-75140276D01*
X171761877Y-75140276D02*
X171666639Y-75235514D01*
X171666639Y-75235514D02*
X171571401Y-75283133D01*
X172761877Y-74997419D02*
X172857115Y-74997419D01*
X172857115Y-74997419D02*
X172952353Y-75045038D01*
X172952353Y-75045038D02*
X172999972Y-75092657D01*
X172999972Y-75092657D02*
X173047591Y-75187895D01*
X173047591Y-75187895D02*
X173095210Y-75378371D01*
X173095210Y-75378371D02*
X173095210Y-75616466D01*
X173095210Y-75616466D02*
X173047591Y-75806942D01*
X173047591Y-75806942D02*
X172999972Y-75902180D01*
X172999972Y-75902180D02*
X172952353Y-75949800D01*
X172952353Y-75949800D02*
X172857115Y-75997419D01*
X172857115Y-75997419D02*
X172761877Y-75997419D01*
X172761877Y-75997419D02*
X172666639Y-75949800D01*
X172666639Y-75949800D02*
X172619020Y-75902180D01*
X172619020Y-75902180D02*
X172571401Y-75806942D01*
X172571401Y-75806942D02*
X172523782Y-75616466D01*
X172523782Y-75616466D02*
X172523782Y-75378371D01*
X172523782Y-75378371D02*
X172571401Y-75187895D01*
X172571401Y-75187895D02*
X172619020Y-75092657D01*
X172619020Y-75092657D02*
X172666639Y-75045038D01*
X172666639Y-75045038D02*
X172761877Y-74997419D01*
X166991353Y-57527580D02*
X166372306Y-57527580D01*
X166372306Y-57527580D02*
X166705639Y-57146628D01*
X166705639Y-57146628D02*
X166562782Y-57146628D01*
X166562782Y-57146628D02*
X166467544Y-57099009D01*
X166467544Y-57099009D02*
X166419925Y-57051390D01*
X166419925Y-57051390D02*
X166372306Y-56956152D01*
X166372306Y-56956152D02*
X166372306Y-56718057D01*
X166372306Y-56718057D02*
X166419925Y-56622819D01*
X166419925Y-56622819D02*
X166467544Y-56575200D01*
X166467544Y-56575200D02*
X166562782Y-56527580D01*
X166562782Y-56527580D02*
X166848496Y-56527580D01*
X166848496Y-56527580D02*
X166943734Y-56575200D01*
X166943734Y-56575200D02*
X166991353Y-56622819D01*
X165896115Y-56527580D02*
X165705639Y-56527580D01*
X165705639Y-56527580D02*
X165610401Y-56575200D01*
X165610401Y-56575200D02*
X165562782Y-56622819D01*
X165562782Y-56622819D02*
X165467544Y-56765676D01*
X165467544Y-56765676D02*
X165419925Y-56956152D01*
X165419925Y-56956152D02*
X165419925Y-57337104D01*
X165419925Y-57337104D02*
X165467544Y-57432342D01*
X165467544Y-57432342D02*
X165515163Y-57479961D01*
X165515163Y-57479961D02*
X165610401Y-57527580D01*
X165610401Y-57527580D02*
X165800877Y-57527580D01*
X165800877Y-57527580D02*
X165896115Y-57479961D01*
X165896115Y-57479961D02*
X165943734Y-57432342D01*
X165943734Y-57432342D02*
X165991353Y-57337104D01*
X165991353Y-57337104D02*
X165991353Y-57099009D01*
X165991353Y-57099009D02*
X165943734Y-57003771D01*
X165943734Y-57003771D02*
X165896115Y-56956152D01*
X165896115Y-56956152D02*
X165800877Y-56908533D01*
X165800877Y-56908533D02*
X165610401Y-56908533D01*
X165610401Y-56908533D02*
X165515163Y-56956152D01*
X165515163Y-56956152D02*
X165467544Y-57003771D01*
X165467544Y-57003771D02*
X165419925Y-57099009D01*
X163927544Y-57194247D02*
X163927544Y-56527580D01*
X164165639Y-57575200D02*
X164403734Y-56860914D01*
X164403734Y-56860914D02*
X163784687Y-56860914D01*
X163213258Y-57527580D02*
X163118020Y-57527580D01*
X163118020Y-57527580D02*
X163022782Y-57479961D01*
X163022782Y-57479961D02*
X162975163Y-57432342D01*
X162975163Y-57432342D02*
X162927544Y-57337104D01*
X162927544Y-57337104D02*
X162879925Y-57146628D01*
X162879925Y-57146628D02*
X162879925Y-56908533D01*
X162879925Y-56908533D02*
X162927544Y-56718057D01*
X162927544Y-56718057D02*
X162975163Y-56622819D01*
X162975163Y-56622819D02*
X163022782Y-56575200D01*
X163022782Y-56575200D02*
X163118020Y-56527580D01*
X163118020Y-56527580D02*
X163213258Y-56527580D01*
X163213258Y-56527580D02*
X163308496Y-56575200D01*
X163308496Y-56575200D02*
X163356115Y-56622819D01*
X163356115Y-56622819D02*
X163403734Y-56718057D01*
X163403734Y-56718057D02*
X163451353Y-56908533D01*
X163451353Y-56908533D02*
X163451353Y-57146628D01*
X163451353Y-57146628D02*
X163403734Y-57337104D01*
X163403734Y-57337104D02*
X163356115Y-57432342D01*
X163356115Y-57432342D02*
X163308496Y-57479961D01*
X163308496Y-57479961D02*
X163213258Y-57527580D01*
X156307544Y-57194247D02*
X156307544Y-56527580D01*
X156545639Y-57575200D02*
X156783734Y-56860914D01*
X156783734Y-56860914D02*
X156164687Y-56860914D01*
X155878972Y-57527580D02*
X155259925Y-57527580D01*
X155259925Y-57527580D02*
X155593258Y-57146628D01*
X155593258Y-57146628D02*
X155450401Y-57146628D01*
X155450401Y-57146628D02*
X155355163Y-57099009D01*
X155355163Y-57099009D02*
X155307544Y-57051390D01*
X155307544Y-57051390D02*
X155259925Y-56956152D01*
X155259925Y-56956152D02*
X155259925Y-56718057D01*
X155259925Y-56718057D02*
X155307544Y-56622819D01*
X155307544Y-56622819D02*
X155355163Y-56575200D01*
X155355163Y-56575200D02*
X155450401Y-56527580D01*
X155450401Y-56527580D02*
X155736115Y-56527580D01*
X155736115Y-56527580D02*
X155831353Y-56575200D01*
X155831353Y-56575200D02*
X155878972Y-56622819D01*
X192343734Y-57432342D02*
X192296115Y-57479961D01*
X192296115Y-57479961D02*
X192200877Y-57527580D01*
X192200877Y-57527580D02*
X191962782Y-57527580D01*
X191962782Y-57527580D02*
X191867544Y-57479961D01*
X191867544Y-57479961D02*
X191819925Y-57432342D01*
X191819925Y-57432342D02*
X191772306Y-57337104D01*
X191772306Y-57337104D02*
X191772306Y-57241866D01*
X191772306Y-57241866D02*
X191819925Y-57099009D01*
X191819925Y-57099009D02*
X192391353Y-56527580D01*
X192391353Y-56527580D02*
X191772306Y-56527580D01*
X191296115Y-56527580D02*
X191105639Y-56527580D01*
X191105639Y-56527580D02*
X191010401Y-56575200D01*
X191010401Y-56575200D02*
X190962782Y-56622819D01*
X190962782Y-56622819D02*
X190867544Y-56765676D01*
X190867544Y-56765676D02*
X190819925Y-56956152D01*
X190819925Y-56956152D02*
X190819925Y-57337104D01*
X190819925Y-57337104D02*
X190867544Y-57432342D01*
X190867544Y-57432342D02*
X190915163Y-57479961D01*
X190915163Y-57479961D02*
X191010401Y-57527580D01*
X191010401Y-57527580D02*
X191200877Y-57527580D01*
X191200877Y-57527580D02*
X191296115Y-57479961D01*
X191296115Y-57479961D02*
X191343734Y-57432342D01*
X191343734Y-57432342D02*
X191391353Y-57337104D01*
X191391353Y-57337104D02*
X191391353Y-57099009D01*
X191391353Y-57099009D02*
X191343734Y-57003771D01*
X191343734Y-57003771D02*
X191296115Y-56956152D01*
X191296115Y-56956152D02*
X191200877Y-56908533D01*
X191200877Y-56908533D02*
X191010401Y-56908533D01*
X191010401Y-56908533D02*
X190915163Y-56956152D01*
X190915163Y-56956152D02*
X190867544Y-57003771D01*
X190867544Y-57003771D02*
X190819925Y-57099009D01*
X153767544Y-57194247D02*
X153767544Y-56527580D01*
X154005639Y-57575200D02*
X154243734Y-56860914D01*
X154243734Y-56860914D02*
X153624687Y-56860914D01*
X152815163Y-57194247D02*
X152815163Y-56527580D01*
X153053258Y-57575200D02*
X153291353Y-56860914D01*
X153291353Y-56860914D02*
X152672306Y-56860914D01*
X184771353Y-57527580D02*
X184152306Y-57527580D01*
X184152306Y-57527580D02*
X184485639Y-57146628D01*
X184485639Y-57146628D02*
X184342782Y-57146628D01*
X184342782Y-57146628D02*
X184247544Y-57099009D01*
X184247544Y-57099009D02*
X184199925Y-57051390D01*
X184199925Y-57051390D02*
X184152306Y-56956152D01*
X184152306Y-56956152D02*
X184152306Y-56718057D01*
X184152306Y-56718057D02*
X184199925Y-56622819D01*
X184199925Y-56622819D02*
X184247544Y-56575200D01*
X184247544Y-56575200D02*
X184342782Y-56527580D01*
X184342782Y-56527580D02*
X184628496Y-56527580D01*
X184628496Y-56527580D02*
X184723734Y-56575200D01*
X184723734Y-56575200D02*
X184771353Y-56622819D01*
X183771353Y-57432342D02*
X183723734Y-57479961D01*
X183723734Y-57479961D02*
X183628496Y-57527580D01*
X183628496Y-57527580D02*
X183390401Y-57527580D01*
X183390401Y-57527580D02*
X183295163Y-57479961D01*
X183295163Y-57479961D02*
X183247544Y-57432342D01*
X183247544Y-57432342D02*
X183199925Y-57337104D01*
X183199925Y-57337104D02*
X183199925Y-57241866D01*
X183199925Y-57241866D02*
X183247544Y-57099009D01*
X183247544Y-57099009D02*
X183818972Y-56527580D01*
X183818972Y-56527580D02*
X183199925Y-56527580D01*
X179691353Y-57527580D02*
X179072306Y-57527580D01*
X179072306Y-57527580D02*
X179405639Y-57146628D01*
X179405639Y-57146628D02*
X179262782Y-57146628D01*
X179262782Y-57146628D02*
X179167544Y-57099009D01*
X179167544Y-57099009D02*
X179119925Y-57051390D01*
X179119925Y-57051390D02*
X179072306Y-56956152D01*
X179072306Y-56956152D02*
X179072306Y-56718057D01*
X179072306Y-56718057D02*
X179119925Y-56622819D01*
X179119925Y-56622819D02*
X179167544Y-56575200D01*
X179167544Y-56575200D02*
X179262782Y-56527580D01*
X179262782Y-56527580D02*
X179548496Y-56527580D01*
X179548496Y-56527580D02*
X179643734Y-56575200D01*
X179643734Y-56575200D02*
X179691353Y-56622819D01*
X178215163Y-57194247D02*
X178215163Y-56527580D01*
X178453258Y-57575200D02*
X178691353Y-56860914D01*
X178691353Y-56860914D02*
X178072306Y-56860914D01*
X189851353Y-57527580D02*
X189232306Y-57527580D01*
X189232306Y-57527580D02*
X189565639Y-57146628D01*
X189565639Y-57146628D02*
X189422782Y-57146628D01*
X189422782Y-57146628D02*
X189327544Y-57099009D01*
X189327544Y-57099009D02*
X189279925Y-57051390D01*
X189279925Y-57051390D02*
X189232306Y-56956152D01*
X189232306Y-56956152D02*
X189232306Y-56718057D01*
X189232306Y-56718057D02*
X189279925Y-56622819D01*
X189279925Y-56622819D02*
X189327544Y-56575200D01*
X189327544Y-56575200D02*
X189422782Y-56527580D01*
X189422782Y-56527580D02*
X189708496Y-56527580D01*
X189708496Y-56527580D02*
X189803734Y-56575200D01*
X189803734Y-56575200D02*
X189851353Y-56622819D01*
X188613258Y-57527580D02*
X188518020Y-57527580D01*
X188518020Y-57527580D02*
X188422782Y-57479961D01*
X188422782Y-57479961D02*
X188375163Y-57432342D01*
X188375163Y-57432342D02*
X188327544Y-57337104D01*
X188327544Y-57337104D02*
X188279925Y-57146628D01*
X188279925Y-57146628D02*
X188279925Y-56908533D01*
X188279925Y-56908533D02*
X188327544Y-56718057D01*
X188327544Y-56718057D02*
X188375163Y-56622819D01*
X188375163Y-56622819D02*
X188422782Y-56575200D01*
X188422782Y-56575200D02*
X188518020Y-56527580D01*
X188518020Y-56527580D02*
X188613258Y-56527580D01*
X188613258Y-56527580D02*
X188708496Y-56575200D01*
X188708496Y-56575200D02*
X188756115Y-56622819D01*
X188756115Y-56622819D02*
X188803734Y-56718057D01*
X188803734Y-56718057D02*
X188851353Y-56908533D01*
X188851353Y-56908533D02*
X188851353Y-57146628D01*
X188851353Y-57146628D02*
X188803734Y-57337104D01*
X188803734Y-57337104D02*
X188756115Y-57432342D01*
X188756115Y-57432342D02*
X188708496Y-57479961D01*
X188708496Y-57479961D02*
X188613258Y-57527580D01*
X183870721Y-75997419D02*
X183299293Y-75997419D01*
X183585007Y-75997419D02*
X183585007Y-74997419D01*
X183585007Y-74997419D02*
X183489769Y-75140276D01*
X183489769Y-75140276D02*
X183394531Y-75235514D01*
X183394531Y-75235514D02*
X183299293Y-75283133D01*
X184727864Y-75330752D02*
X184727864Y-75997419D01*
X184489769Y-74949800D02*
X184251674Y-75664085D01*
X184251674Y-75664085D02*
X184870721Y-75664085D01*
X155734667Y-75092657D02*
X155782286Y-75045038D01*
X155782286Y-75045038D02*
X155877524Y-74997419D01*
X155877524Y-74997419D02*
X156115619Y-74997419D01*
X156115619Y-74997419D02*
X156210857Y-75045038D01*
X156210857Y-75045038D02*
X156258476Y-75092657D01*
X156258476Y-75092657D02*
X156306095Y-75187895D01*
X156306095Y-75187895D02*
X156306095Y-75283133D01*
X156306095Y-75283133D02*
X156258476Y-75425990D01*
X156258476Y-75425990D02*
X155687048Y-75997419D01*
X155687048Y-75997419D02*
X156306095Y-75997419D01*
X177151353Y-57527580D02*
X176532306Y-57527580D01*
X176532306Y-57527580D02*
X176865639Y-57146628D01*
X176865639Y-57146628D02*
X176722782Y-57146628D01*
X176722782Y-57146628D02*
X176627544Y-57099009D01*
X176627544Y-57099009D02*
X176579925Y-57051390D01*
X176579925Y-57051390D02*
X176532306Y-56956152D01*
X176532306Y-56956152D02*
X176532306Y-56718057D01*
X176532306Y-56718057D02*
X176579925Y-56622819D01*
X176579925Y-56622819D02*
X176627544Y-56575200D01*
X176627544Y-56575200D02*
X176722782Y-56527580D01*
X176722782Y-56527580D02*
X177008496Y-56527580D01*
X177008496Y-56527580D02*
X177103734Y-56575200D01*
X177103734Y-56575200D02*
X177151353Y-56622819D01*
X175627544Y-57527580D02*
X176103734Y-57527580D01*
X176103734Y-57527580D02*
X176151353Y-57051390D01*
X176151353Y-57051390D02*
X176103734Y-57099009D01*
X176103734Y-57099009D02*
X176008496Y-57146628D01*
X176008496Y-57146628D02*
X175770401Y-57146628D01*
X175770401Y-57146628D02*
X175675163Y-57099009D01*
X175675163Y-57099009D02*
X175627544Y-57051390D01*
X175627544Y-57051390D02*
X175579925Y-56956152D01*
X175579925Y-56956152D02*
X175579925Y-56718057D01*
X175579925Y-56718057D02*
X175627544Y-56622819D01*
X175627544Y-56622819D02*
X175675163Y-56575200D01*
X175675163Y-56575200D02*
X175770401Y-56527580D01*
X175770401Y-56527580D02*
X176008496Y-56527580D01*
X176008496Y-56527580D02*
X176103734Y-56575200D01*
X176103734Y-56575200D02*
X176151353Y-56622819D01*
X160170040Y-75330752D02*
X160170040Y-75997419D01*
X159931945Y-74949800D02*
X159693850Y-75664085D01*
X159693850Y-75664085D02*
X160312897Y-75664085D01*
X169687047Y-75997419D02*
X169877523Y-75997419D01*
X169877523Y-75997419D02*
X169972761Y-75949800D01*
X169972761Y-75949800D02*
X170020380Y-75902180D01*
X170020380Y-75902180D02*
X170115618Y-75759323D01*
X170115618Y-75759323D02*
X170163237Y-75568847D01*
X170163237Y-75568847D02*
X170163237Y-75187895D01*
X170163237Y-75187895D02*
X170115618Y-75092657D01*
X170115618Y-75092657D02*
X170067999Y-75045038D01*
X170067999Y-75045038D02*
X169972761Y-74997419D01*
X169972761Y-74997419D02*
X169782285Y-74997419D01*
X169782285Y-74997419D02*
X169687047Y-75045038D01*
X169687047Y-75045038D02*
X169639428Y-75092657D01*
X169639428Y-75092657D02*
X169591809Y-75187895D01*
X169591809Y-75187895D02*
X169591809Y-75425990D01*
X169591809Y-75425990D02*
X169639428Y-75521228D01*
X169639428Y-75521228D02*
X169687047Y-75568847D01*
X169687047Y-75568847D02*
X169782285Y-75616466D01*
X169782285Y-75616466D02*
X169972761Y-75616466D01*
X169972761Y-75616466D02*
X170067999Y-75568847D01*
X170067999Y-75568847D02*
X170115618Y-75521228D01*
X170115618Y-75521228D02*
X170163237Y-75425990D01*
X189734666Y-75997419D02*
X189163238Y-75997419D01*
X189448952Y-75997419D02*
X189448952Y-74997419D01*
X189448952Y-74997419D02*
X189353714Y-75140276D01*
X189353714Y-75140276D02*
X189258476Y-75235514D01*
X189258476Y-75235514D02*
X189163238Y-75283133D01*
X190591809Y-74997419D02*
X190401333Y-74997419D01*
X190401333Y-74997419D02*
X190306095Y-75045038D01*
X190306095Y-75045038D02*
X190258476Y-75092657D01*
X190258476Y-75092657D02*
X190163238Y-75235514D01*
X190163238Y-75235514D02*
X190115619Y-75425990D01*
X190115619Y-75425990D02*
X190115619Y-75806942D01*
X190115619Y-75806942D02*
X190163238Y-75902180D01*
X190163238Y-75902180D02*
X190210857Y-75949800D01*
X190210857Y-75949800D02*
X190306095Y-75997419D01*
X190306095Y-75997419D02*
X190496571Y-75997419D01*
X190496571Y-75997419D02*
X190591809Y-75949800D01*
X190591809Y-75949800D02*
X190639428Y-75902180D01*
X190639428Y-75902180D02*
X190687047Y-75806942D01*
X190687047Y-75806942D02*
X190687047Y-75568847D01*
X190687047Y-75568847D02*
X190639428Y-75473609D01*
X190639428Y-75473609D02*
X190591809Y-75425990D01*
X190591809Y-75425990D02*
X190496571Y-75378371D01*
X190496571Y-75378371D02*
X190306095Y-75378371D01*
X190306095Y-75378371D02*
X190210857Y-75425990D01*
X190210857Y-75425990D02*
X190163238Y-75473609D01*
X190163238Y-75473609D02*
X190115619Y-75568847D01*
X174611353Y-57527580D02*
X173992306Y-57527580D01*
X173992306Y-57527580D02*
X174325639Y-57146628D01*
X174325639Y-57146628D02*
X174182782Y-57146628D01*
X174182782Y-57146628D02*
X174087544Y-57099009D01*
X174087544Y-57099009D02*
X174039925Y-57051390D01*
X174039925Y-57051390D02*
X173992306Y-56956152D01*
X173992306Y-56956152D02*
X173992306Y-56718057D01*
X173992306Y-56718057D02*
X174039925Y-56622819D01*
X174039925Y-56622819D02*
X174087544Y-56575200D01*
X174087544Y-56575200D02*
X174182782Y-56527580D01*
X174182782Y-56527580D02*
X174468496Y-56527580D01*
X174468496Y-56527580D02*
X174563734Y-56575200D01*
X174563734Y-56575200D02*
X174611353Y-56622819D01*
X173135163Y-57527580D02*
X173325639Y-57527580D01*
X173325639Y-57527580D02*
X173420877Y-57479961D01*
X173420877Y-57479961D02*
X173468496Y-57432342D01*
X173468496Y-57432342D02*
X173563734Y-57289485D01*
X173563734Y-57289485D02*
X173611353Y-57099009D01*
X173611353Y-57099009D02*
X173611353Y-56718057D01*
X173611353Y-56718057D02*
X173563734Y-56622819D01*
X173563734Y-56622819D02*
X173516115Y-56575200D01*
X173516115Y-56575200D02*
X173420877Y-56527580D01*
X173420877Y-56527580D02*
X173230401Y-56527580D01*
X173230401Y-56527580D02*
X173135163Y-56575200D01*
X173135163Y-56575200D02*
X173087544Y-56622819D01*
X173087544Y-56622819D02*
X173039925Y-56718057D01*
X173039925Y-56718057D02*
X173039925Y-56956152D01*
X173039925Y-56956152D02*
X173087544Y-57051390D01*
X173087544Y-57051390D02*
X173135163Y-57099009D01*
X173135163Y-57099009D02*
X173230401Y-57146628D01*
X173230401Y-57146628D02*
X173420877Y-57146628D01*
X173420877Y-57146628D02*
X173516115Y-57099009D01*
X173516115Y-57099009D02*
X173563734Y-57051390D01*
X173563734Y-57051390D02*
X173611353Y-56956152D01*
X167802694Y-75425990D02*
X167707456Y-75378371D01*
X167707456Y-75378371D02*
X167659837Y-75330752D01*
X167659837Y-75330752D02*
X167612218Y-75235514D01*
X167612218Y-75235514D02*
X167612218Y-75187895D01*
X167612218Y-75187895D02*
X167659837Y-75092657D01*
X167659837Y-75092657D02*
X167707456Y-75045038D01*
X167707456Y-75045038D02*
X167802694Y-74997419D01*
X167802694Y-74997419D02*
X167993170Y-74997419D01*
X167993170Y-74997419D02*
X168088408Y-75045038D01*
X168088408Y-75045038D02*
X168136027Y-75092657D01*
X168136027Y-75092657D02*
X168183646Y-75187895D01*
X168183646Y-75187895D02*
X168183646Y-75235514D01*
X168183646Y-75235514D02*
X168136027Y-75330752D01*
X168136027Y-75330752D02*
X168088408Y-75378371D01*
X168088408Y-75378371D02*
X167993170Y-75425990D01*
X167993170Y-75425990D02*
X167802694Y-75425990D01*
X167802694Y-75425990D02*
X167707456Y-75473609D01*
X167707456Y-75473609D02*
X167659837Y-75521228D01*
X167659837Y-75521228D02*
X167612218Y-75616466D01*
X167612218Y-75616466D02*
X167612218Y-75806942D01*
X167612218Y-75806942D02*
X167659837Y-75902180D01*
X167659837Y-75902180D02*
X167707456Y-75949800D01*
X167707456Y-75949800D02*
X167802694Y-75997419D01*
X167802694Y-75997419D02*
X167993170Y-75997419D01*
X167993170Y-75997419D02*
X168088408Y-75949800D01*
X168088408Y-75949800D02*
X168136027Y-75902180D01*
X168136027Y-75902180D02*
X168183646Y-75806942D01*
X168183646Y-75806942D02*
X168183646Y-75616466D01*
X168183646Y-75616466D02*
X168136027Y-75521228D01*
X168136027Y-75521228D02*
X168088408Y-75473609D01*
X168088408Y-75473609D02*
X167993170Y-75425990D01*
X187311353Y-57527580D02*
X186692306Y-57527580D01*
X186692306Y-57527580D02*
X187025639Y-57146628D01*
X187025639Y-57146628D02*
X186882782Y-57146628D01*
X186882782Y-57146628D02*
X186787544Y-57099009D01*
X186787544Y-57099009D02*
X186739925Y-57051390D01*
X186739925Y-57051390D02*
X186692306Y-56956152D01*
X186692306Y-56956152D02*
X186692306Y-56718057D01*
X186692306Y-56718057D02*
X186739925Y-56622819D01*
X186739925Y-56622819D02*
X186787544Y-56575200D01*
X186787544Y-56575200D02*
X186882782Y-56527580D01*
X186882782Y-56527580D02*
X187168496Y-56527580D01*
X187168496Y-56527580D02*
X187263734Y-56575200D01*
X187263734Y-56575200D02*
X187311353Y-56622819D01*
X185739925Y-56527580D02*
X186311353Y-56527580D01*
X186025639Y-56527580D02*
X186025639Y-57527580D01*
X186025639Y-57527580D02*
X186120877Y-57384723D01*
X186120877Y-57384723D02*
X186216115Y-57289485D01*
X186216115Y-57289485D02*
X186311353Y-57241866D01*
X162197251Y-74997419D02*
X161721061Y-74997419D01*
X161721061Y-74997419D02*
X161673442Y-75473609D01*
X161673442Y-75473609D02*
X161721061Y-75425990D01*
X161721061Y-75425990D02*
X161816299Y-75378371D01*
X161816299Y-75378371D02*
X162054394Y-75378371D01*
X162054394Y-75378371D02*
X162149632Y-75425990D01*
X162149632Y-75425990D02*
X162197251Y-75473609D01*
X162197251Y-75473609D02*
X162244870Y-75568847D01*
X162244870Y-75568847D02*
X162244870Y-75806942D01*
X162244870Y-75806942D02*
X162197251Y-75902180D01*
X162197251Y-75902180D02*
X162149632Y-75949800D01*
X162149632Y-75949800D02*
X162054394Y-75997419D01*
X162054394Y-75997419D02*
X161816299Y-75997419D01*
X161816299Y-75997419D02*
X161721061Y-75949800D01*
X161721061Y-75949800D02*
X161673442Y-75902180D01*
X197423734Y-57432342D02*
X197376115Y-57479961D01*
X197376115Y-57479961D02*
X197280877Y-57527580D01*
X197280877Y-57527580D02*
X197042782Y-57527580D01*
X197042782Y-57527580D02*
X196947544Y-57479961D01*
X196947544Y-57479961D02*
X196899925Y-57432342D01*
X196899925Y-57432342D02*
X196852306Y-57337104D01*
X196852306Y-57337104D02*
X196852306Y-57241866D01*
X196852306Y-57241866D02*
X196899925Y-57099009D01*
X196899925Y-57099009D02*
X197471353Y-56527580D01*
X197471353Y-56527580D02*
X196852306Y-56527580D01*
X196518972Y-57527580D02*
X195852306Y-57527580D01*
X195852306Y-57527580D02*
X196280877Y-56527580D01*
X186802693Y-75997419D02*
X186231265Y-75997419D01*
X186516979Y-75997419D02*
X186516979Y-74997419D01*
X186516979Y-74997419D02*
X186421741Y-75140276D01*
X186421741Y-75140276D02*
X186326503Y-75235514D01*
X186326503Y-75235514D02*
X186231265Y-75283133D01*
X187707455Y-74997419D02*
X187231265Y-74997419D01*
X187231265Y-74997419D02*
X187183646Y-75473609D01*
X187183646Y-75473609D02*
X187231265Y-75425990D01*
X187231265Y-75425990D02*
X187326503Y-75378371D01*
X187326503Y-75378371D02*
X187564598Y-75378371D01*
X187564598Y-75378371D02*
X187659836Y-75425990D01*
X187659836Y-75425990D02*
X187707455Y-75473609D01*
X187707455Y-75473609D02*
X187755074Y-75568847D01*
X187755074Y-75568847D02*
X187755074Y-75806942D01*
X187755074Y-75806942D02*
X187707455Y-75902180D01*
X187707455Y-75902180D02*
X187659836Y-75949800D01*
X187659836Y-75949800D02*
X187564598Y-75997419D01*
X187564598Y-75997419D02*
X187326503Y-75997419D01*
X187326503Y-75997419D02*
X187231265Y-75949800D01*
X187231265Y-75949800D02*
X187183646Y-75902180D01*
X178006775Y-75997419D02*
X177435347Y-75997419D01*
X177721061Y-75997419D02*
X177721061Y-74997419D01*
X177721061Y-74997419D02*
X177625823Y-75140276D01*
X177625823Y-75140276D02*
X177530585Y-75235514D01*
X177530585Y-75235514D02*
X177435347Y-75283133D01*
X178387728Y-75092657D02*
X178435347Y-75045038D01*
X178435347Y-75045038D02*
X178530585Y-74997419D01*
X178530585Y-74997419D02*
X178768680Y-74997419D01*
X178768680Y-74997419D02*
X178863918Y-75045038D01*
X178863918Y-75045038D02*
X178911537Y-75092657D01*
X178911537Y-75092657D02*
X178959156Y-75187895D01*
X178959156Y-75187895D02*
X178959156Y-75283133D01*
X178959156Y-75283133D02*
X178911537Y-75425990D01*
X178911537Y-75425990D02*
X178340109Y-75997419D01*
X178340109Y-75997419D02*
X178959156Y-75997419D01*
X161387544Y-57194247D02*
X161387544Y-56527580D01*
X161625639Y-57575200D02*
X161863734Y-56860914D01*
X161863734Y-56860914D02*
X161244687Y-56860914D01*
X160339925Y-56527580D02*
X160911353Y-56527580D01*
X160625639Y-56527580D02*
X160625639Y-57527580D01*
X160625639Y-57527580D02*
X160720877Y-57384723D01*
X160720877Y-57384723D02*
X160816115Y-57289485D01*
X160816115Y-57289485D02*
X160911353Y-57241866D01*
D11*
X205263333Y-70384819D02*
X204930000Y-69908628D01*
X204691905Y-70384819D02*
X204691905Y-69384819D01*
X204691905Y-69384819D02*
X205072857Y-69384819D01*
X205072857Y-69384819D02*
X205168095Y-69432438D01*
X205168095Y-69432438D02*
X205215714Y-69480057D01*
X205215714Y-69480057D02*
X205263333Y-69575295D01*
X205263333Y-69575295D02*
X205263333Y-69718152D01*
X205263333Y-69718152D02*
X205215714Y-69813390D01*
X205215714Y-69813390D02*
X205168095Y-69861009D01*
X205168095Y-69861009D02*
X205072857Y-69908628D01*
X205072857Y-69908628D02*
X204691905Y-69908628D01*
X205596667Y-69384819D02*
X206215714Y-69384819D01*
X206215714Y-69384819D02*
X205882381Y-69765771D01*
X205882381Y-69765771D02*
X206025238Y-69765771D01*
X206025238Y-69765771D02*
X206120476Y-69813390D01*
X206120476Y-69813390D02*
X206168095Y-69861009D01*
X206168095Y-69861009D02*
X206215714Y-69956247D01*
X206215714Y-69956247D02*
X206215714Y-70194342D01*
X206215714Y-70194342D02*
X206168095Y-70289580D01*
X206168095Y-70289580D02*
X206120476Y-70337200D01*
X206120476Y-70337200D02*
X206025238Y-70384819D01*
X206025238Y-70384819D02*
X205739524Y-70384819D01*
X205739524Y-70384819D02*
X205644286Y-70337200D01*
X205644286Y-70337200D02*
X205596667Y-70289580D01*
X173100952Y-59424819D02*
X172624762Y-59424819D01*
X172624762Y-59424819D02*
X172624762Y-58424819D01*
X173434286Y-58901009D02*
X173767619Y-58901009D01*
X173910476Y-59424819D02*
X173434286Y-59424819D01*
X173434286Y-59424819D02*
X173434286Y-58424819D01*
X173434286Y-58424819D02*
X173910476Y-58424819D01*
X174339048Y-59424819D02*
X174339048Y-58424819D01*
X174339048Y-58424819D02*
X174577143Y-58424819D01*
X174577143Y-58424819D02*
X174720000Y-58472438D01*
X174720000Y-58472438D02*
X174815238Y-58567676D01*
X174815238Y-58567676D02*
X174862857Y-58662914D01*
X174862857Y-58662914D02*
X174910476Y-58853390D01*
X174910476Y-58853390D02*
X174910476Y-58996247D01*
X174910476Y-58996247D02*
X174862857Y-59186723D01*
X174862857Y-59186723D02*
X174815238Y-59281961D01*
X174815238Y-59281961D02*
X174720000Y-59377200D01*
X174720000Y-59377200D02*
X174577143Y-59424819D01*
X174577143Y-59424819D02*
X174339048Y-59424819D01*
X175862857Y-59424819D02*
X175291429Y-59424819D01*
X175577143Y-59424819D02*
X175577143Y-58424819D01*
X175577143Y-58424819D02*
X175481905Y-58567676D01*
X175481905Y-58567676D02*
X175386667Y-58662914D01*
X175386667Y-58662914D02*
X175291429Y-58710533D01*
X203876667Y-61937200D02*
X204019524Y-61984819D01*
X204019524Y-61984819D02*
X204257619Y-61984819D01*
X204257619Y-61984819D02*
X204352857Y-61937200D01*
X204352857Y-61937200D02*
X204400476Y-61889580D01*
X204400476Y-61889580D02*
X204448095Y-61794342D01*
X204448095Y-61794342D02*
X204448095Y-61699104D01*
X204448095Y-61699104D02*
X204400476Y-61603866D01*
X204400476Y-61603866D02*
X204352857Y-61556247D01*
X204352857Y-61556247D02*
X204257619Y-61508628D01*
X204257619Y-61508628D02*
X204067143Y-61461009D01*
X204067143Y-61461009D02*
X203971905Y-61413390D01*
X203971905Y-61413390D02*
X203924286Y-61365771D01*
X203924286Y-61365771D02*
X203876667Y-61270533D01*
X203876667Y-61270533D02*
X203876667Y-61175295D01*
X203876667Y-61175295D02*
X203924286Y-61080057D01*
X203924286Y-61080057D02*
X203971905Y-61032438D01*
X203971905Y-61032438D02*
X204067143Y-60984819D01*
X204067143Y-60984819D02*
X204305238Y-60984819D01*
X204305238Y-60984819D02*
X204448095Y-61032438D01*
X204781429Y-60984819D02*
X205019524Y-61984819D01*
X205019524Y-61984819D02*
X205210000Y-61270533D01*
X205210000Y-61270533D02*
X205400476Y-61984819D01*
X205400476Y-61984819D02*
X205638572Y-60984819D01*
X206543333Y-61984819D02*
X205971905Y-61984819D01*
X206257619Y-61984819D02*
X206257619Y-60984819D01*
X206257619Y-60984819D02*
X206162381Y-61127676D01*
X206162381Y-61127676D02*
X206067143Y-61222914D01*
X206067143Y-61222914D02*
X205971905Y-61270533D01*
X161770180Y-65366666D02*
X161055895Y-65366666D01*
X161055895Y-65366666D02*
X160913038Y-65319047D01*
X160913038Y-65319047D02*
X160817800Y-65223809D01*
X160817800Y-65223809D02*
X160770180Y-65080952D01*
X160770180Y-65080952D02*
X160770180Y-64985714D01*
X160770180Y-66366666D02*
X160770180Y-65795238D01*
X160770180Y-66080952D02*
X161770180Y-66080952D01*
X161770180Y-66080952D02*
X161627323Y-65985714D01*
X161627323Y-65985714D02*
X161532085Y-65890476D01*
X161532085Y-65890476D02*
X161484466Y-65795238D01*
X205153333Y-66679580D02*
X205105714Y-66727200D01*
X205105714Y-66727200D02*
X204962857Y-66774819D01*
X204962857Y-66774819D02*
X204867619Y-66774819D01*
X204867619Y-66774819D02*
X204724762Y-66727200D01*
X204724762Y-66727200D02*
X204629524Y-66631961D01*
X204629524Y-66631961D02*
X204581905Y-66536723D01*
X204581905Y-66536723D02*
X204534286Y-66346247D01*
X204534286Y-66346247D02*
X204534286Y-66203390D01*
X204534286Y-66203390D02*
X204581905Y-66012914D01*
X204581905Y-66012914D02*
X204629524Y-65917676D01*
X204629524Y-65917676D02*
X204724762Y-65822438D01*
X204724762Y-65822438D02*
X204867619Y-65774819D01*
X204867619Y-65774819D02*
X204962857Y-65774819D01*
X204962857Y-65774819D02*
X205105714Y-65822438D01*
X205105714Y-65822438D02*
X205153333Y-65870057D01*
X206058095Y-65774819D02*
X205581905Y-65774819D01*
X205581905Y-65774819D02*
X205534286Y-66251009D01*
X205534286Y-66251009D02*
X205581905Y-66203390D01*
X205581905Y-66203390D02*
X205677143Y-66155771D01*
X205677143Y-66155771D02*
X205915238Y-66155771D01*
X205915238Y-66155771D02*
X206010476Y-66203390D01*
X206010476Y-66203390D02*
X206058095Y-66251009D01*
X206058095Y-66251009D02*
X206105714Y-66346247D01*
X206105714Y-66346247D02*
X206105714Y-66584342D01*
X206105714Y-66584342D02*
X206058095Y-66679580D01*
X206058095Y-66679580D02*
X206010476Y-66727200D01*
X206010476Y-66727200D02*
X205915238Y-66774819D01*
X205915238Y-66774819D02*
X205677143Y-66774819D01*
X205677143Y-66774819D02*
X205581905Y-66727200D01*
X205581905Y-66727200D02*
X205534286Y-66679580D01*
X199367887Y-65436411D02*
X199300543Y-65436411D01*
X199300543Y-65436411D02*
X199165856Y-65369067D01*
X199165856Y-65369067D02*
X199098513Y-65301724D01*
X199098513Y-65301724D02*
X199031169Y-65167037D01*
X199031169Y-65167037D02*
X199031169Y-65032350D01*
X199031169Y-65032350D02*
X199064841Y-64931335D01*
X199064841Y-64931335D02*
X199165856Y-64762976D01*
X199165856Y-64762976D02*
X199266871Y-64661961D01*
X199266871Y-64661961D02*
X199435230Y-64560945D01*
X199435230Y-64560945D02*
X199536245Y-64527274D01*
X199536245Y-64527274D02*
X199670932Y-64527274D01*
X199670932Y-64527274D02*
X199805619Y-64594617D01*
X199805619Y-64594617D02*
X199872963Y-64661961D01*
X199872963Y-64661961D02*
X199940306Y-64796648D01*
X199940306Y-64796648D02*
X199940306Y-64863991D01*
X200378039Y-65638441D02*
X199906635Y-66109846D01*
X200479054Y-65200709D02*
X199805619Y-65537426D01*
X199805619Y-65537426D02*
X200243352Y-65975159D01*
X152808333Y-59329819D02*
X152475000Y-58853628D01*
X152236905Y-59329819D02*
X152236905Y-58329819D01*
X152236905Y-58329819D02*
X152617857Y-58329819D01*
X152617857Y-58329819D02*
X152713095Y-58377438D01*
X152713095Y-58377438D02*
X152760714Y-58425057D01*
X152760714Y-58425057D02*
X152808333Y-58520295D01*
X152808333Y-58520295D02*
X152808333Y-58663152D01*
X152808333Y-58663152D02*
X152760714Y-58758390D01*
X152760714Y-58758390D02*
X152713095Y-58806009D01*
X152713095Y-58806009D02*
X152617857Y-58853628D01*
X152617857Y-58853628D02*
X152236905Y-58853628D01*
X153189286Y-58425057D02*
X153236905Y-58377438D01*
X153236905Y-58377438D02*
X153332143Y-58329819D01*
X153332143Y-58329819D02*
X153570238Y-58329819D01*
X153570238Y-58329819D02*
X153665476Y-58377438D01*
X153665476Y-58377438D02*
X153713095Y-58425057D01*
X153713095Y-58425057D02*
X153760714Y-58520295D01*
X153760714Y-58520295D02*
X153760714Y-58615533D01*
X153760714Y-58615533D02*
X153713095Y-58758390D01*
X153713095Y-58758390D02*
X153141667Y-59329819D01*
X153141667Y-59329819D02*
X153760714Y-59329819D01*
X199666411Y-72672112D02*
X199666411Y-72739456D01*
X199666411Y-72739456D02*
X199599067Y-72874143D01*
X199599067Y-72874143D02*
X199531724Y-72941486D01*
X199531724Y-72941486D02*
X199397037Y-73008830D01*
X199397037Y-73008830D02*
X199262350Y-73008830D01*
X199262350Y-73008830D02*
X199161335Y-72975158D01*
X199161335Y-72975158D02*
X198992976Y-72874143D01*
X198992976Y-72874143D02*
X198891961Y-72773128D01*
X198891961Y-72773128D02*
X198790945Y-72604769D01*
X198790945Y-72604769D02*
X198757274Y-72503754D01*
X198757274Y-72503754D02*
X198757274Y-72369067D01*
X198757274Y-72369067D02*
X198824617Y-72234380D01*
X198824617Y-72234380D02*
X198891961Y-72167036D01*
X198891961Y-72167036D02*
X199026648Y-72099693D01*
X199026648Y-72099693D02*
X199093991Y-72099693D01*
X199262350Y-71796647D02*
X199700083Y-71358914D01*
X199700083Y-71358914D02*
X199733754Y-71863990D01*
X199733754Y-71863990D02*
X199834770Y-71762975D01*
X199834770Y-71762975D02*
X199935785Y-71729303D01*
X199935785Y-71729303D02*
X200003128Y-71729303D01*
X200003128Y-71729303D02*
X200104144Y-71762975D01*
X200104144Y-71762975D02*
X200272502Y-71931334D01*
X200272502Y-71931334D02*
X200306174Y-72032349D01*
X200306174Y-72032349D02*
X200306174Y-72099693D01*
X200306174Y-72099693D02*
X200272502Y-72200708D01*
X200272502Y-72200708D02*
X200070472Y-72402738D01*
X200070472Y-72402738D02*
X199969457Y-72436410D01*
X199969457Y-72436410D02*
X199902113Y-72436410D01*
X190908095Y-60834819D02*
X190908095Y-61644342D01*
X190908095Y-61644342D02*
X190955714Y-61739580D01*
X190955714Y-61739580D02*
X191003333Y-61787200D01*
X191003333Y-61787200D02*
X191098571Y-61834819D01*
X191098571Y-61834819D02*
X191289047Y-61834819D01*
X191289047Y-61834819D02*
X191384285Y-61787200D01*
X191384285Y-61787200D02*
X191431904Y-61739580D01*
X191431904Y-61739580D02*
X191479523Y-61644342D01*
X191479523Y-61644342D02*
X191479523Y-60834819D01*
X192479523Y-61834819D02*
X191908095Y-61834819D01*
X192193809Y-61834819D02*
X192193809Y-60834819D01*
X192193809Y-60834819D02*
X192098571Y-60977676D01*
X192098571Y-60977676D02*
X192003333Y-61072914D01*
X192003333Y-61072914D02*
X191908095Y-61120533D01*
X166398095Y-71434819D02*
X166398095Y-72244342D01*
X166398095Y-72244342D02*
X166445714Y-72339580D01*
X166445714Y-72339580D02*
X166493333Y-72387200D01*
X166493333Y-72387200D02*
X166588571Y-72434819D01*
X166588571Y-72434819D02*
X166779047Y-72434819D01*
X166779047Y-72434819D02*
X166874285Y-72387200D01*
X166874285Y-72387200D02*
X166921904Y-72339580D01*
X166921904Y-72339580D02*
X166969523Y-72244342D01*
X166969523Y-72244342D02*
X166969523Y-71434819D01*
X167398095Y-71530057D02*
X167445714Y-71482438D01*
X167445714Y-71482438D02*
X167540952Y-71434819D01*
X167540952Y-71434819D02*
X167779047Y-71434819D01*
X167779047Y-71434819D02*
X167874285Y-71482438D01*
X167874285Y-71482438D02*
X167921904Y-71530057D01*
X167921904Y-71530057D02*
X167969523Y-71625295D01*
X167969523Y-71625295D02*
X167969523Y-71720533D01*
X167969523Y-71720533D02*
X167921904Y-71863390D01*
X167921904Y-71863390D02*
X167350476Y-72434819D01*
X167350476Y-72434819D02*
X167969523Y-72434819D01*
X159413333Y-72814819D02*
X159080000Y-72338628D01*
X158841905Y-72814819D02*
X158841905Y-71814819D01*
X158841905Y-71814819D02*
X159222857Y-71814819D01*
X159222857Y-71814819D02*
X159318095Y-71862438D01*
X159318095Y-71862438D02*
X159365714Y-71910057D01*
X159365714Y-71910057D02*
X159413333Y-72005295D01*
X159413333Y-72005295D02*
X159413333Y-72148152D01*
X159413333Y-72148152D02*
X159365714Y-72243390D01*
X159365714Y-72243390D02*
X159318095Y-72291009D01*
X159318095Y-72291009D02*
X159222857Y-72338628D01*
X159222857Y-72338628D02*
X158841905Y-72338628D01*
X160365714Y-72814819D02*
X159794286Y-72814819D01*
X160080000Y-72814819D02*
X160080000Y-71814819D01*
X160080000Y-71814819D02*
X159984762Y-71957676D01*
X159984762Y-71957676D02*
X159889524Y-72052914D01*
X159889524Y-72052914D02*
X159794286Y-72100533D01*
X207929819Y-55433333D02*
X208644104Y-55433333D01*
X208644104Y-55433333D02*
X208786961Y-55480952D01*
X208786961Y-55480952D02*
X208882200Y-55576190D01*
X208882200Y-55576190D02*
X208929819Y-55719047D01*
X208929819Y-55719047D02*
X208929819Y-55814285D01*
X207929819Y-55052380D02*
X207929819Y-54433333D01*
X207929819Y-54433333D02*
X208310771Y-54766666D01*
X208310771Y-54766666D02*
X208310771Y-54623809D01*
X208310771Y-54623809D02*
X208358390Y-54528571D01*
X208358390Y-54528571D02*
X208406009Y-54480952D01*
X208406009Y-54480952D02*
X208501247Y-54433333D01*
X208501247Y-54433333D02*
X208739342Y-54433333D01*
X208739342Y-54433333D02*
X208834580Y-54480952D01*
X208834580Y-54480952D02*
X208882200Y-54528571D01*
X208882200Y-54528571D02*
X208929819Y-54623809D01*
X208929819Y-54623809D02*
X208929819Y-54909523D01*
X208929819Y-54909523D02*
X208882200Y-55004761D01*
X208882200Y-55004761D02*
X208834580Y-55052380D01*
X162756667Y-70327200D02*
X162899524Y-70374819D01*
X162899524Y-70374819D02*
X163137619Y-70374819D01*
X163137619Y-70374819D02*
X163232857Y-70327200D01*
X163232857Y-70327200D02*
X163280476Y-70279580D01*
X163280476Y-70279580D02*
X163328095Y-70184342D01*
X163328095Y-70184342D02*
X163328095Y-70089104D01*
X163328095Y-70089104D02*
X163280476Y-69993866D01*
X163280476Y-69993866D02*
X163232857Y-69946247D01*
X163232857Y-69946247D02*
X163137619Y-69898628D01*
X163137619Y-69898628D02*
X162947143Y-69851009D01*
X162947143Y-69851009D02*
X162851905Y-69803390D01*
X162851905Y-69803390D02*
X162804286Y-69755771D01*
X162804286Y-69755771D02*
X162756667Y-69660533D01*
X162756667Y-69660533D02*
X162756667Y-69565295D01*
X162756667Y-69565295D02*
X162804286Y-69470057D01*
X162804286Y-69470057D02*
X162851905Y-69422438D01*
X162851905Y-69422438D02*
X162947143Y-69374819D01*
X162947143Y-69374819D02*
X163185238Y-69374819D01*
X163185238Y-69374819D02*
X163328095Y-69422438D01*
X163661429Y-69374819D02*
X163899524Y-70374819D01*
X163899524Y-70374819D02*
X164090000Y-69660533D01*
X164090000Y-69660533D02*
X164280476Y-70374819D01*
X164280476Y-70374819D02*
X164518572Y-69374819D01*
X164851905Y-69470057D02*
X164899524Y-69422438D01*
X164899524Y-69422438D02*
X164994762Y-69374819D01*
X164994762Y-69374819D02*
X165232857Y-69374819D01*
X165232857Y-69374819D02*
X165328095Y-69422438D01*
X165328095Y-69422438D02*
X165375714Y-69470057D01*
X165375714Y-69470057D02*
X165423333Y-69565295D01*
X165423333Y-69565295D02*
X165423333Y-69660533D01*
X165423333Y-69660533D02*
X165375714Y-69803390D01*
X165375714Y-69803390D02*
X164804286Y-70374819D01*
X164804286Y-70374819D02*
X165423333Y-70374819D01*
X166483333Y-59404819D02*
X166150000Y-58928628D01*
X165911905Y-59404819D02*
X165911905Y-58404819D01*
X165911905Y-58404819D02*
X166292857Y-58404819D01*
X166292857Y-58404819D02*
X166388095Y-58452438D01*
X166388095Y-58452438D02*
X166435714Y-58500057D01*
X166435714Y-58500057D02*
X166483333Y-58595295D01*
X166483333Y-58595295D02*
X166483333Y-58738152D01*
X166483333Y-58738152D02*
X166435714Y-58833390D01*
X166435714Y-58833390D02*
X166388095Y-58881009D01*
X166388095Y-58881009D02*
X166292857Y-58928628D01*
X166292857Y-58928628D02*
X165911905Y-58928628D01*
X167340476Y-58738152D02*
X167340476Y-59404819D01*
X167102381Y-58357200D02*
X166864286Y-59071485D01*
X166864286Y-59071485D02*
X167483333Y-59071485D01*
X152134819Y-78073333D02*
X152849104Y-78073333D01*
X152849104Y-78073333D02*
X152991961Y-78120952D01*
X152991961Y-78120952D02*
X153087200Y-78216190D01*
X153087200Y-78216190D02*
X153134819Y-78359047D01*
X153134819Y-78359047D02*
X153134819Y-78454285D01*
X152230057Y-77644761D02*
X152182438Y-77597142D01*
X152182438Y-77597142D02*
X152134819Y-77501904D01*
X152134819Y-77501904D02*
X152134819Y-77263809D01*
X152134819Y-77263809D02*
X152182438Y-77168571D01*
X152182438Y-77168571D02*
X152230057Y-77120952D01*
X152230057Y-77120952D02*
X152325295Y-77073333D01*
X152325295Y-77073333D02*
X152420533Y-77073333D01*
X152420533Y-77073333D02*
X152563390Y-77120952D01*
X152563390Y-77120952D02*
X153134819Y-77692380D01*
X153134819Y-77692380D02*
X153134819Y-77073333D01*
X193712079Y-66396918D02*
X194890590Y-66632620D01*
X194183483Y-65925514D02*
X194419185Y-67104025D01*
X195530353Y-65992857D02*
X195126292Y-66396918D01*
X195328323Y-66194888D02*
X194621216Y-65487781D01*
X194621216Y-65487781D02*
X194654888Y-65656140D01*
X194654888Y-65656140D02*
X194654888Y-65790827D01*
X194654888Y-65790827D02*
X194621216Y-65891842D01*
%TO.C,R3*%
X203180000Y-70660000D02*
X204540000Y-70660000D01*
X203180000Y-72820000D02*
X203180000Y-70660000D01*
X204540000Y-72820000D02*
X203180000Y-72820000D01*
X206440000Y-72820000D02*
X207800000Y-72820000D01*
X207800000Y-70660000D02*
X206440000Y-70660000D01*
X207800000Y-72820000D02*
X207800000Y-70660000D01*
D12*
%TO.C,LED1*%
X167990000Y-58330000D02*
X168370000Y-57950000D01*
X167990000Y-59600000D02*
X167990000Y-58330000D01*
X168370000Y-57950000D02*
X169890000Y-57950000D01*
X168400000Y-60010000D02*
X167990000Y-59600000D01*
X169870000Y-60010000D02*
X168400000Y-60010000D01*
X170310000Y-58960000D02*
X170040000Y-58960000D01*
X170410000Y-58460000D02*
X170410000Y-59460000D01*
X170660000Y-59980000D02*
X172210000Y-59980000D01*
X172210000Y-57950000D02*
X170660000Y-57950000D01*
X172210000Y-59980000D02*
X172210000Y-57950000D01*
D11*
%TO.C,SW1*%
X203250000Y-62280000D02*
X203250000Y-62710000D01*
X203250000Y-65360000D02*
X203250000Y-64930000D01*
X207310000Y-62280000D02*
X203250000Y-62280000D01*
X207310000Y-62280000D02*
X207310000Y-62710000D01*
X207310000Y-64930000D02*
X207310000Y-65360000D01*
X207310000Y-65360000D02*
X203250000Y-65360000D01*
D12*
X206180000Y-63820000D02*
G75*
G02*
X204380000Y-63820000I-900000J0D01*
G01*
X204380000Y-63820000D02*
G75*
G02*
X206180000Y-63820000I900000J0D01*
G01*
D13*
%TO.C,J1*%
X155825000Y-61030000D02*
X157525000Y-61030000D01*
X155825000Y-70370000D02*
X157525000Y-70370000D01*
D11*
%TO.C,C5*%
X203430000Y-68680000D02*
X203430000Y-67180000D01*
X203580000Y-67030000D02*
X204990000Y-67030000D01*
X204990000Y-68830000D02*
X203580000Y-68830000D01*
X205790000Y-68830000D02*
X207200000Y-68830000D01*
X207200000Y-67030000D02*
X205790000Y-67030000D01*
X207350000Y-68680000D02*
X207350000Y-67180000D01*
X203430000Y-67180000D02*
G75*
G02*
X203580000Y-67030000I150000J0D01*
G01*
X203580000Y-68830000D02*
G75*
G02*
X203430000Y-68680000I0J150000D01*
G01*
X207200000Y-67030000D02*
G75*
G02*
X207350000Y-67180000I0J-150000D01*
G01*
X207350000Y-68680000D02*
G75*
G02*
X207200000Y-68830000I-150000J0D01*
G01*
%TO.C,C4*%
X196593741Y-65846533D02*
X197590761Y-66843553D01*
X197654401Y-64573741D02*
X196593741Y-65634401D01*
X198863553Y-65570761D02*
X197866533Y-64573741D01*
X199153467Y-68406259D02*
X198156447Y-67409239D01*
X199429239Y-66136447D02*
X200426259Y-67133467D01*
X200426259Y-67345599D02*
X199365599Y-68406259D01*
X196593741Y-65846533D02*
G75*
G02*
X196593741Y-65634401I106066J106066D01*
G01*
X197654401Y-64573741D02*
G75*
G02*
X197866533Y-64573741I106066J-106066D01*
G01*
X199365599Y-68406259D02*
G75*
G02*
X199153467Y-68406259I-106066J106066D01*
G01*
X200426259Y-67133467D02*
G75*
G02*
X200426259Y-67345599I-106066J-106066D01*
G01*
%TO.C,R2*%
X153965000Y-57845000D02*
X155325000Y-57845000D01*
X153965000Y-60005000D02*
X153965000Y-57845000D01*
X155325000Y-60005000D02*
X153965000Y-60005000D01*
X157225000Y-60005000D02*
X158585000Y-60005000D01*
X158585000Y-57845000D02*
X157225000Y-57845000D01*
X158585000Y-60005000D02*
X158585000Y-57845000D01*
%TO.C,C3*%
X196293741Y-71773467D02*
X197290761Y-70776447D01*
X197354401Y-73046259D02*
X196293741Y-71985599D01*
X198563553Y-72049239D02*
X197566533Y-73046259D01*
X198853467Y-69213741D02*
X197856447Y-70210761D01*
X199129239Y-71483553D02*
X200126259Y-70486533D01*
X200126259Y-70274401D02*
X199065599Y-69213741D01*
X196293741Y-71985599D02*
G75*
G02*
X196293741Y-71773467I106066J106066D01*
G01*
X197566533Y-73046259D02*
G75*
G02*
X197354401Y-73046259I-106066J106066D01*
G01*
X198853467Y-69213741D02*
G75*
G02*
X199065599Y-69213741I106066J-106066D01*
G01*
X200126259Y-70274401D02*
G75*
G02*
X200126259Y-70486533I-106066J-106066D01*
G01*
%TO.C,U1*%
X180540000Y-61620000D02*
X181220000Y-61620000D01*
X180540000Y-62300000D02*
X180540000Y-61620000D01*
X180540000Y-71100000D02*
X180540000Y-71780000D01*
X180540000Y-71780000D02*
X181220000Y-71780000D01*
X180950000Y-62030000D02*
X190290000Y-62030000D01*
X180950000Y-71370000D02*
X180950000Y-62030000D01*
X190290000Y-62030000D02*
X190290000Y-71370000D01*
X190290000Y-71370000D02*
X180950000Y-71370000D01*
X190700000Y-61620000D02*
X190020000Y-61620000D01*
X190700000Y-62300000D02*
X190700000Y-61620000D01*
X190700000Y-71100000D02*
X190700000Y-71780000D01*
X190700000Y-71780000D02*
X190020000Y-71780000D01*
D14*
X181020000Y-72400000D02*
G75*
G02*
X180720000Y-72400000I-150000J0D01*
G01*
X180720000Y-72400000D02*
G75*
G02*
X181020000Y-72400000I150000J0D01*
G01*
X181600000Y-70870000D02*
G75*
G02*
X181300000Y-70870000I-150000J0D01*
G01*
X181300000Y-70870000D02*
G75*
G02*
X181600000Y-70870000I150000J0D01*
G01*
D11*
%TO.C,U2*%
X170300000Y-61420000D02*
X173840000Y-61420000D01*
X170300000Y-71580000D02*
X170300000Y-61420000D01*
X173840000Y-61420000D02*
X173840000Y-71580000D01*
X173840000Y-71580000D02*
X170300000Y-71580000D01*
D14*
X173240000Y-70950000D02*
G75*
G02*
X172940000Y-70950000I-150000J0D01*
G01*
X172940000Y-70950000D02*
G75*
G02*
X173240000Y-70950000I150000J0D01*
G01*
X175090000Y-71680000D02*
G75*
G02*
X174790000Y-71680000I-150000J0D01*
G01*
X174790000Y-71680000D02*
G75*
G02*
X175090000Y-71680000I150000J0D01*
G01*
D11*
%TO.C,R1*%
X154040000Y-71270000D02*
X155400000Y-71270000D01*
X154040000Y-73430000D02*
X154040000Y-71270000D01*
X155400000Y-73430000D02*
X154040000Y-73430000D01*
X157300000Y-73430000D02*
X158660000Y-73430000D01*
X158660000Y-71270000D02*
X157300000Y-71270000D01*
X158660000Y-73430000D02*
X158660000Y-71270000D01*
D13*
%TO.C,J3*%
X152050000Y-53540000D02*
X152050000Y-56300000D01*
X205500000Y-53540000D02*
X152050000Y-53540000D01*
X205500000Y-53540000D02*
X205500000Y-56300000D01*
X205500000Y-56300000D02*
X152050000Y-56300000D01*
X206770000Y-53540000D02*
X208150000Y-53540000D01*
X208150000Y-53540000D02*
X208150000Y-54920000D01*
D12*
%TO.C,SW2*%
X163370000Y-65960000D02*
X163370000Y-66660000D01*
X163400000Y-65960000D02*
X163370000Y-65960000D01*
X163530000Y-66100000D02*
X163530000Y-66580000D01*
X163530000Y-66580000D02*
X164170000Y-66580000D01*
X163550000Y-66090000D02*
X163550000Y-66100000D01*
X163550000Y-66100000D02*
X163530000Y-66100000D01*
X163630000Y-66320000D02*
X163630000Y-66460000D01*
X163630000Y-66460000D02*
X163980000Y-66460000D01*
X163650000Y-66300000D02*
X163650000Y-66320000D01*
X163650000Y-66320000D02*
X163630000Y-66320000D01*
X163980000Y-66460000D02*
X163980000Y-66440000D01*
X164130000Y-66300000D02*
X163650000Y-66300000D01*
X164130000Y-66580000D02*
X164130000Y-66300000D01*
X164170000Y-66580000D02*
X164130000Y-66580000D01*
X164300000Y-66090000D02*
X163550000Y-66090000D01*
X164300000Y-66640000D02*
X164300000Y-66090000D01*
D11*
%TO.C,R4*%
X161050000Y-57900000D02*
X161050000Y-60060000D01*
X161050000Y-60060000D02*
X162410000Y-60060000D01*
X162410000Y-57900000D02*
X161050000Y-57900000D01*
X164310000Y-57900000D02*
X165670000Y-57900000D01*
X165670000Y-57900000D02*
X165670000Y-60060000D01*
X165670000Y-60060000D02*
X164310000Y-60060000D01*
D13*
%TO.C,J2*%
X152680000Y-79120000D02*
X152680000Y-77740000D01*
X154060000Y-79120000D02*
X152680000Y-79120000D01*
X155330000Y-76360000D02*
X208780000Y-76360000D01*
X155330000Y-79120000D02*
X155330000Y-76360000D01*
X155330000Y-79120000D02*
X208780000Y-79120000D01*
X208780000Y-79120000D02*
X208780000Y-76360000D01*
D11*
%TO.C,X1*%
X193306634Y-69027487D02*
X196177487Y-66156634D01*
X194508715Y-70554838D02*
X195682513Y-71728635D01*
X195682513Y-71403366D02*
X193306634Y-69027487D01*
X195682513Y-71728635D02*
X196997731Y-70413417D01*
X196177487Y-66156634D02*
X198553366Y-68532513D01*
X198553366Y-68532513D02*
X195682513Y-71403366D01*
%TD*%
%LPC*%
D15*
%TO.C,R3*%
X204010000Y-71740000D03*
X206970000Y-71740000D03*
%TD*%
D16*
%TO.C,LED1*%
X171260000Y-58960000D03*
X169160000Y-58960000D03*
%TD*%
D17*
%TO.C,SW1*%
X203100000Y-63820000D03*
X207460000Y-63820000D03*
%TD*%
D18*
%TO.C,J1*%
X158330000Y-62810000D03*
X158330000Y-68590000D03*
D19*
X159405000Y-62500000D03*
X159405000Y-63300000D03*
D20*
X159405000Y-64450000D03*
X159405000Y-65450000D03*
X159405000Y-65950000D03*
X159405000Y-66950000D03*
D19*
X159405000Y-68100000D03*
X159405000Y-68900000D03*
X159405000Y-68900000D03*
X159405000Y-68100000D03*
D20*
X159405000Y-67450000D03*
X159405000Y-66450000D03*
X159405000Y-64950000D03*
X159405000Y-63950000D03*
D19*
X159405000Y-63300000D03*
X159405000Y-62500000D03*
D21*
X158830000Y-61380000D03*
D22*
X154650000Y-61380000D03*
D21*
X158830000Y-70020000D03*
D22*
X154650000Y-70020000D03*
%TD*%
D23*
%TO.C,C5*%
X204390000Y-67930000D03*
X206390000Y-67930000D03*
%TD*%
D24*
%TO.C,C4*%
X199217107Y-67197107D03*
X197802893Y-65782893D03*
%TD*%
D15*
%TO.C,R2*%
X154795000Y-58925000D03*
X157755000Y-58925000D03*
%TD*%
D25*
%TO.C,C3*%
X197502893Y-71837107D03*
X198917107Y-70422893D03*
%TD*%
D26*
%TO.C,U1*%
X181620000Y-72440000D03*
X182420000Y-72440000D03*
X183220000Y-72440000D03*
X184020000Y-72440000D03*
X184820000Y-72440000D03*
X185620000Y-72440000D03*
X186420000Y-72440000D03*
X187220000Y-72440000D03*
X188020000Y-72440000D03*
X188820000Y-72440000D03*
X189620000Y-72440000D03*
D27*
X191360000Y-70700000D03*
X191360000Y-69900000D03*
X191360000Y-69100000D03*
X191360000Y-68300000D03*
X191360000Y-67500000D03*
X191360000Y-66700000D03*
X191360000Y-65900000D03*
X191360000Y-65100000D03*
X191360000Y-64300000D03*
X191360000Y-63500000D03*
X191360000Y-62700000D03*
D26*
X189620000Y-60960000D03*
X188820000Y-60960000D03*
X188020000Y-60960000D03*
X187220000Y-60960000D03*
X186420000Y-60960000D03*
X185620000Y-60960000D03*
X184820000Y-60960000D03*
X184020000Y-60960000D03*
X183220000Y-60960000D03*
X182420000Y-60960000D03*
X181620000Y-60960000D03*
D27*
X179880000Y-62700000D03*
X179880000Y-63500000D03*
X179880000Y-64300000D03*
X179880000Y-65100000D03*
X179880000Y-65900000D03*
X179880000Y-66700000D03*
X179880000Y-67500000D03*
X179880000Y-68300000D03*
X179880000Y-69100000D03*
X179880000Y-69900000D03*
X179880000Y-70700000D03*
%TD*%
D28*
%TO.C,U2*%
X174940000Y-70950000D03*
X174940000Y-69680000D03*
X174940000Y-68410000D03*
X174940000Y-67130000D03*
X174940000Y-65870000D03*
X174940000Y-64600000D03*
X174940000Y-63330000D03*
X174940000Y-62060000D03*
X169200000Y-62060000D03*
X169200000Y-63330000D03*
X169200000Y-64600000D03*
X169200000Y-65870000D03*
X169200000Y-67130000D03*
X169200000Y-68410000D03*
X169200000Y-69680000D03*
X169200000Y-70950000D03*
%TD*%
D15*
%TO.C,R1*%
X154870000Y-72350000D03*
X157830000Y-72350000D03*
%TD*%
D29*
%TO.C,J3*%
X206770000Y-54920000D03*
D30*
X204230000Y-54920000D03*
X201690000Y-54920000D03*
X199150000Y-54920000D03*
X196610000Y-54920000D03*
X194070000Y-54920000D03*
X191530000Y-54920000D03*
X188990000Y-54920000D03*
X186450000Y-54920000D03*
X183910000Y-54920000D03*
X181370000Y-54920000D03*
X178830000Y-54920000D03*
X176290000Y-54920000D03*
X173750000Y-54920000D03*
X171210000Y-54920000D03*
X168670000Y-54920000D03*
X166130000Y-54920000D03*
X163590000Y-54920000D03*
X161050000Y-54920000D03*
X158510000Y-54920000D03*
X155970000Y-54920000D03*
X153430000Y-54920000D03*
%TD*%
D31*
%TO.C,SW2*%
X161540000Y-67760000D03*
X164040000Y-67760000D03*
X166540000Y-67760000D03*
X166540000Y-61960000D03*
X164040000Y-61960000D03*
X161540000Y-61960000D03*
%TD*%
D15*
%TO.C,R4*%
X164840000Y-58980000D03*
X161880000Y-58980000D03*
%TD*%
D29*
%TO.C,J2*%
X154060000Y-77740000D03*
D30*
X156600000Y-77740000D03*
X159140000Y-77740000D03*
X161680000Y-77740000D03*
X164220000Y-77740000D03*
X166760000Y-77740000D03*
X169300000Y-77740000D03*
X171840000Y-77740000D03*
X174380000Y-77740000D03*
X176920000Y-77740000D03*
X179460000Y-77740000D03*
X182000000Y-77740000D03*
X184540000Y-77740000D03*
X187080000Y-77740000D03*
X189620000Y-77740000D03*
X192160000Y-77740000D03*
X194700000Y-77740000D03*
X197240000Y-77740000D03*
X199780000Y-77740000D03*
X202320000Y-77740000D03*
X204860000Y-77740000D03*
X207400000Y-77740000D03*
%TD*%
D32*
%TO.C,X1*%
X195753223Y-70158858D03*
X197308858Y-68603223D03*
X196106777Y-67401142D03*
X194551142Y-68956777D03*
%TD*%
%LPD*%
M02*
