M48
; DRILL file {KiCad 9.0.7} date 2026-03-03T22:21:46+0800
; FORMAT={-:-/ absolute / metric / decimal}
; #@! TF.CreationDate,2026-03-03T22:21:46+08:00
; #@! TF.GenerationSoftware,Kicad,Pcbnew,9.0.7
; #@! TF.FileFunction,Plated,1,2,PTH
FMAT,2
METRIC
; #@! TA.AperFunction,Plated,PTH,ViaDrill
T1C0.305
; #@! TA.AperFunction,Plated,PTH,ComponentDrill
T2C0.600
; #@! TA.AperFunction,Plated,PTH,ComponentDrill
T3C1.000
%
G90
G05
T1
X155.06Y-75.42
X156.013Y-65.709
X156.25Y-58.98
X156.36Y-72.35
X157.87Y-75.37
X160.2Y-60.0
X160.213Y-72.613
X160.413Y-70.279
X160.44Y-75.7
X161.52Y-67.06
X161.55Y-64.3
X163.03Y-75.67
X163.39Y-58.54
X164.04Y-64.3
X164.04Y-67.03
X165.45Y-60.65
X165.78Y-75.9
X167.525Y-57.465
X168.212Y-56.144
X168.275Y-60.85
X168.35Y-76.23
X169.2Y-71.98
X170.035Y-56.575
X171.98Y-68.44
X173.27Y-60.46
X175.23Y-57.61
X176.287Y-68.587
X176.3Y-67.64
X176.34Y-66.64
X176.36Y-64.7
X176.36Y-65.62
X176.37Y-69.64
X176.41Y-62.92
X176.83Y-70.95
X177.26Y-57.09
X180.85Y-58.45
X181.59Y-66.81
X181.6Y-67.69
X182.23Y-63.16
X183.39Y-67.69
X184.0Y-57.53
X184.83Y-70.98
X185.97Y-76.37
X186.4Y-70.95
X187.76Y-56.04
X188.01Y-73.78
X188.4Y-66.66
X188.4Y-76.49
X188.84Y-73.79
X188.99Y-63.4
X189.12Y-69.11
X189.65Y-73.81
X189.98Y-68.26
X190.24Y-56.32
X191.13Y-71.47
X192.57Y-62.7
X192.57Y-63.54
X192.6Y-64.468
X192.68Y-67.48
X192.78Y-56.49
X193.25Y-68.932
X193.6Y-67.14
X193.61Y-71.55
X194.21Y-66.51
X194.27Y-72.15
X194.91Y-72.79
X194.98Y-65.81
X195.24Y-56.76
X195.67Y-73.52
X195.7Y-65.01
X196.15Y-75.4
X196.49Y-64.22
X196.686Y-73.52
X197.664Y-64.22
X197.702Y-73.52
X197.95Y-56.73
X198.548Y-64.22
X198.718Y-73.502
X198.92Y-68.74
X199.219Y-64.891
X199.485Y-72.735
X200.174Y-65.846
X200.265Y-71.955
X200.45Y-57.02
X201.014Y-66.686
X201.015Y-71.205
X201.067Y-75.278
X201.75Y-67.422
X201.75Y-68.438
X201.75Y-69.454
X201.75Y-70.47
X202.9Y-65.875
X202.97Y-57.09
X203.66Y-75.07
X205.47Y-57.18
X205.61Y-71.74
X207.35Y-62.375
X207.82Y-58.27
T3
X153.43Y-54.92
X154.06Y-77.74
X155.97Y-54.92
X156.6Y-77.74
X158.51Y-54.92
X159.14Y-77.74
X161.05Y-54.92
X161.68Y-77.74
X163.59Y-54.92
X164.22Y-77.74
X166.13Y-54.92
X166.76Y-77.74
X168.67Y-54.92
X169.3Y-77.74
X171.21Y-54.92
X171.84Y-77.74
X173.75Y-54.92
X174.38Y-77.74
X176.29Y-54.92
X176.92Y-77.74
X178.83Y-54.92
X179.46Y-77.74
X181.37Y-54.92
X182.0Y-77.74
X183.91Y-54.92
X184.54Y-77.74
X186.45Y-54.92
X187.08Y-77.74
X188.99Y-54.92
X189.62Y-77.74
X191.53Y-54.92
X192.16Y-77.74
X194.07Y-54.92
X194.7Y-77.74
X196.61Y-54.92
X197.24Y-77.74
X199.15Y-54.92
X199.78Y-77.74
X201.69Y-54.92
X202.32Y-77.74
X204.23Y-54.92
X204.86Y-77.74
X206.77Y-54.92
X207.4Y-77.74
T2
G00X155.05Y-61.38
M15
G01X154.25Y-61.38
M16
G05
G00X155.05Y-70.02
M15
G01X154.25Y-70.02
M16
G05
G00X159.38Y-61.38
M15
G01X158.28Y-61.38
M16
G05
G00X159.38Y-70.02
M15
G01X158.28Y-70.02
M16
G05
M30
